<?xml version="1.0" encoding="UTF-8" standalone="no"?>
<svg
   xmlns:v="http://schemas.microsoft.com/visio/2003/SVGExtensions/"
   xmlns:dc="http://purl.org/dc/elements/1.1/"
   xmlns:cc="http://creativecommons.org/ns#"
   xmlns:rdf="http://www.w3.org/1999/02/22-rdf-syntax-ns#"
   xmlns:svg="http://www.w3.org/2000/svg"
   xmlns="http://www.w3.org/2000/svg"
   xmlns:xlink="http://www.w3.org/1999/xlink"
   xmlns:sodipodi="http://sodipodi.sourceforge.net/DTD/sodipodi-0.dtd"
   xmlns:inkscape="http://www.inkscape.org/namespaces/inkscape"
   inkscape:version="1.0 (4035a4fb49, 2020-05-01)"
   sodipodi:docname="active-directory-as-idp.svg"
   id="svg860"
   version="1.1"
   class="st32"
   color-interpolation-filters="sRGB"
   xml:space="preserve"
   viewBox="0 0 532.813 228.499"
   height="3.1736in"
   width="7.40018in"><metadata
   id="metadata864"><rdf:RDF><cc:Work
       rdf:about=""><dc:format>image/svg+xml</dc:format><dc:type
         rdf:resource="http://purl.org/dc/dcmitype/StillImage" /></cc:Work></rdf:RDF></metadata><sodipodi:namedview
   inkscape:current-layer="svg860"
   inkscape:window-maximized="1"
   inkscape:window-y="-8"
   inkscape:window-x="2552"
   inkscape:cy="144.13448"
   inkscape:cx="447.58249"
   inkscape:zoom="2.1399812"
   showgrid="false"
   id="namedview862"
   inkscape:window-height="1387"
   inkscape:window-width="2560"
   inkscape:pageshadow="2"
   inkscape:pageopacity="0"
   guidetolerance="10"
   gridtolerance="10"
   objecttolerance="10"
   borderopacity="1"
   bordercolor="#666666"
   pagecolor="#ffffff" />
	<v:documentProperties
   v:viewMarkup="false"
   v:metric="true"
   v:langID="1033">
		<v:userDefs>
			<v:ud
   v:val="VT0(1):26"
   v:nameU="msvNoAutoConnect" />
		</v:userDefs>
	</v:documentProperties>

	<style
   id="style438"
   type="text/css">
	<![CDATA[
		.st1 {fill:#f6f6f6;stroke:none;stroke-linecap:round;stroke-linejoin:round;stroke-width:0.75}
		.st2 {fill:#efebe9;stroke:none;stroke-linecap:round;stroke-linejoin:round;stroke-width:0.75}
		.st3 {fill:#7f7f7f;font-family:Roboto;font-size:0.666664em}
		.st4 {visibility:visible}
		.st5 {fill:#7f7f7f;fill-opacity:0.22;filter:url(#filter_2);stroke:#7f7f7f;stroke-opacity:0.22}
		.st6 {fill:#ffffff;stroke:#c7c8c8;stroke-width:0.25}
		.st7 {fill:#000000;font-family:Calibri;font-size:0.666664em}
		.st8 {fill:#7f7f7f;font-size:1em}
		.st9 {fill:#4285f4;stroke:none;stroke-linecap:butt;stroke-width:0.75}
		.st10 {fill:#000000;fill-opacity:0.067;stroke:none;stroke-linecap:butt;stroke-width:0.75}
		.st11 {fill:#ffffff;stroke:none;stroke-linecap:butt;stroke-width:0.75}
		.st12 {fill:#f3e5f5;stroke:#ffffff;stroke-linecap:round;stroke-linejoin:round;stroke-width:0.75}
		.st13 {fill:#7f7f7f;font-family:Roboto;font-size:0.666664em;font-weight:bold}
		.st14 {font-size:1em;font-weight:normal}
		.st15 {fill:#00188f;stroke:none;stroke-linecap:butt;stroke-width:0.75}
		.st16 {font-size:1em}
		.st17 {marker-end:url(#mrkr1-50);stroke:#4285f4;stroke-linecap:round;stroke-linejoin:round;stroke-width:1}
		.st18 {fill:#4285f4;fill-opacity:1;stroke:#4285f4;stroke-opacity:1;stroke-width:0.28409090909091}
		.st19 {fill:#000000;font-family:Roboto;font-size:0.666664em}
		.st20 {fill:#3c8bd9;stroke:none;stroke-linecap:butt;stroke-width:1.224}
		.st21 {fill:#fabc04;stroke:none;stroke-linecap:butt;stroke-width:1.224}
		.st22 {fill:#34a852;stroke:none;stroke-linecap:butt;stroke-width:1.224}
		.st23 {fill:#e1c025;stroke:none;stroke-linecap:butt;stroke-width:1.224}
		.st24 {fill:#757575;stroke:none;stroke-linecap:butt;stroke-width:0.75}
		.st25 {marker-start:url(#mrkr1-101);stroke:#00b050;stroke-linecap:round;stroke-linejoin:round;stroke-width:1}
		.st26 {fill:#00b050;fill-opacity:1;stroke:#00b050;stroke-opacity:1;stroke-width:0.28409090909091}
		.st27 {fill:#616161;stroke:none;stroke-linecap:butt;stroke-width:0.75}
		.st28 {marker-end:url(#mrkr1-136);stroke:#00b050;stroke-linecap:round;stroke-linejoin:round;stroke-width:1}
		.st29 {fill:#bfbfbf;stroke:#ffffff;stroke-linecap:round;stroke-linejoin:round;stroke-width:0.75}
		.st30 {fill:none;stroke:none;stroke-linecap:round;stroke-linejoin:round;stroke-width:0.75}
		.st31 {fill:#00b050;font-family:Roboto;font-size:0.666664em;font-style:italic}
		.st32 {fill:none;fill-rule:evenodd;font-size:12px;overflow:visible;stroke-linecap:square;stroke-miterlimit:3}
	]]>
	</style>

	<defs
   id="Markers">
		<g
   id="lend1">
			<path
   id="path440"
   style="stroke-linecap:round;stroke-linejoin:round;fill:none"
   d="M 1 -1 L 0 0 L 1 1 " />
		</g>
		<marker
   overflow="visible"
   markerUnits="strokeWidth"
   orient="auto"
   v:arrowSize="2"
   v:arrowType="1"
   class="st18"
   id="mrkr1-50">
			<use
   id="use443"
   transform="scale(-3.52,-3.52) "
   xlink:href="#lend1" />
		</marker>
		<marker
   overflow="visible"
   markerUnits="strokeWidth"
   orient="auto"
   v:arrowSize="2"
   v:arrowType="1"
   class="st26"
   id="mrkr1-101">
			<use
   id="use446"
   transform="scale(3.52) "
   xlink:href="#lend1" />
		</marker>
		<marker
   overflow="visible"
   markerUnits="strokeWidth"
   orient="auto"
   v:arrowSize="2"
   v:arrowType="1"
   class="st26"
   id="mrkr1-136">
			<use
   id="use449"
   transform="scale(-3.52,-3.52) "
   xlink:href="#lend1" />
		</marker>
	
		
		
		
		
		
		
		
		
		
		
		
		
		
		
		
		
		
		
		
		
		
		
		
	</defs>
	<defs
   id="Filters">
		<filter
   id="filter_2">
			<feGaussianBlur
   id="feGaussianBlur453"
   stdDeviation="2" />
		</filter>
	</defs>
	<g
   id="shape1-1"
   v:mID="1"
   v:groupContext="shape"
   transform="matrix(1.0355304,0,0,1,151.745,-85.5561)">
			<title
   id="title459">Sheet.1</title>
			<rect
   x="0"
   y="106.326"
   width="362.69299"
   height="122.173"
   class="st1"
   id="rect461" />
		</g><g
   id="shape2-3"
   v:mID="2"
   v:groupContext="shape"
   transform="translate(18.375,-18.375)">
			<title
   id="title464">Sheet.2</title>
			<desc
   id="desc466">On-premises environment</desc>
			<v:textBlock
   v:margins="rect(4,4,4,4)"
   v:tabSpace="42.5197"
   v:verticalAlign="0" />
			<v:textRect
   cx="64.1339"
   cy="133.822"
   width="128.27"
   height="189.354" />
			<rect
   x="0"
   y="39.144501"
   width="128.26801"
   height="189.354"
   class="st2"
   id="rect468" />
			<text
   x="4"
   y="50.34"
   class="st3"
   v:langID="1033"
   id="text470"><v:paragraph /><v:tabList />On-premises environment</text>		</g><g
   id="group3-6"
   transform="translate(279.197,-125.095)"
   v:mID="3"
   v:groupContext="group">
			<title
   id="title473">Sheet.3</title>
			<g
   id="shape4-7"
   v:mID="4"
   v:groupContext="shape">
				<title
   id="title475">Sheet.4</title>
				<desc
   id="desc477">example.com Cloud Identity</desc>
				<v:textBlock
   v:margins="rect(4,4,4,4)"
   v:tabSpace="42.5197"
   v:verticalAlign="0" />
				<v:textRect
   cx="49.5375"
   cy="214.844"
   width="99.08"
   height="27.3103" />
				<g
   id="shadow4-8"
   v:groupContext="shadow"
   v:shadowOffsetX="0.172555"
   v:shadowOffsetY="-0.985"
   v:shadowType="1"
   transform="translate(0.172555,0.985)"
   class="st4">
					<rect
   x="0"
   y="201.189"
   width="99.074997"
   height="27.310301"
   class="st5"
   id="rect479" />
				</g>
				<rect
   x="0"
   y="201.189"
   width="99.074997"
   height="27.310301"
   class="st6"
   id="rect482" />
				<text
   x="29.51"
   y="212.39"
   class="st7"
   v:langID="1031"
   id="text486"><v:paragraph
   v:indentLeft="25.51" /><v:tabList />example.com<v:newlineChar /><tspan
   x="29.51"
   dy="1.2em"
   class="st8"
   id="tspan484">Cloud Identity</tspan></text>			</g>
			<g
   id="group5-14"
   transform="translate(5.8196,-4.82376)"
   v:mID="5"
   v:groupContext="group">
				<title
   id="title489">IAM.49</title>
				<g
   id="group6-15"
   v:mID="6"
   v:groupContext="group">
					<title
   id="title491">Sheet.6</title>
					<g
   id="shape7-16"
   v:mID="7"
   v:groupContext="shape">
						<title
   id="title493">Sheet.7</title>
						<path
   d="m 19.42,218.76 -4.04,-7.02 a 1.77503,1.77503 -180 0 0 -1.51,-0.9 H 5.79 a 1.7735,1.7735 -180 0 0 -1.52,0.9 l -4.04,7 a 1.76275,1.76275 -180 0 0 0,1.76 l 4.04,7.06 a 1.80728,1.80728 -180 0 0 1.52,0.94 h 8.07 a 1.80114,1.80114 -180 0 0 1.52,-0.93 l 4.04,-7.02 a 1.80114,1.80114 -180 0 0 0,-1.79 z"
   class="st9"
   id="path495" />
					</g>
					<g
   id="shape8-18"
   v:mID="8"
   v:groupContext="shape"
   transform="translate(7.21629,-0.00460649)">
						<title
   id="title498">Sheet.8</title>
						<path
   d="M 6.45,216.73 0.46,216.6 0,221.9 l 0.35,1.19 5.4,5.41 h 0.9 a 1.80114,1.80114 -180 0 0 1.51,-0.93 l 3.34,-5.8 z"
   class="st10"
   id="path500" />
					</g>
					<g
   id="shape9-20"
   v:mID="9"
   v:groupContext="shape"
   transform="translate(5.9879,-4.09824)">
						<title
   id="title503">Sheet.9</title>
						<path
   d="M 3.84,219.12 0,220.82 v 2.56 c 0,2.37 1.64,4.58 3.84,5.12 2.2,-0.54 3.84,-2.75 3.84,-5.12 v -2.56 z m 0,1.8 a 1.2284,1.2284 0 1 1 -1.23,1.23 1.2284,1.2284 0 0 1 1.23,-1.23 z m 2.3,5.08 a 0.15355,0.15355 0 0 1 -0.026103,0.086 C 6.09,226.13 6.06,226.17 6.03,226.21 a 4.27943,4.27943 0 0 1 -2.19,1.57 4.27943,4.27943 0 0 1 -2.19,-1.56 C 1.62,226.18 1.59,226.14 1.56,226.1 A 0.15355,0.15355 0 0 1 1.533897,226.014 L 1.54,225.32 c 0,-0.94 1.53,-1.42 2.3,-1.42 0.77,0 2.3,0.48 2.3,1.42 z"
   class="st11"
   id="path505" />
					</g>
				</g>
			</g>
		</g><g
   id="shape10-22"
   v:mID="10"
   v:groupContext="shape"
   transform="translate(25.4616,-82.1545)">
			<title
   id="title511">Sheet.10</title>
			<desc
   id="desc513">example.com AD Forest</desc>
			<v:textBlock
   v:margins="rect(4,4,4,4)"
   v:tabSpace="42.5197"
   v:verticalAlign="0" />
			<v:textRect
   cx="56.6929"
   cy="177.475"
   width="113.39"
   height="102.047" />
			<rect
   x="0"
   y="126.452"
   width="113.386"
   height="102.047"
   class="st12"
   id="rect515" />
			<text
   x="4"
   y="137.64999"
   class="st13"
   v:langID="1033"
   id="text521"><v:paragraph /><v:tabList />example.com<v:newlineChar /><tspan
   x="4"
   dy="1.2em"
   class="st14"
   v:langID="1031"
   id="tspan517">AD F</tspan><tspan
   class="st14"
   id="tspan519">orest</tspan></text>		</g><g
   id="group11-27"
   transform="translate(32.5482,-125.095)"
   v:mID="11"
   v:groupContext="group">
			<title
   id="title524">Sheet.11</title>
			<g
   id="shape12-28"
   v:mID="12"
   v:groupContext="shape">
				<title
   id="title526">Sheet.12</title>
				<desc
   id="desc528">example.com AD Domain</desc>
				<v:textBlock
   v:margins="rect(4,4,4,4)"
   v:tabSpace="42.5197"
   v:verticalAlign="0" />
				<v:textRect
   cx="49.5375"
   cy="214.844"
   width="99.08"
   height="27.3103" />
				<g
   id="shadow12-29"
   v:groupContext="shadow"
   v:shadowOffsetX="0.172555"
   v:shadowOffsetY="-0.985"
   v:shadowType="1"
   transform="translate(0.172555,0.985)"
   class="st4">
					<rect
   x="0"
   y="201.189"
   width="99.074997"
   height="27.310301"
   class="st5"
   id="rect530" />
				</g>
				<rect
   x="0"
   y="201.189"
   width="99.074997"
   height="27.310301"
   class="st6"
   id="rect533" />
				<text
   x="29.51"
   y="212.39"
   class="st7"
   v:langID="1031"
   id="text537"><v:paragraph
   v:indentLeft="25.51" /><v:tabList />example.com<v:newlineChar /><tspan
   x="29.51"
   dy="1.2em"
   class="st8"
   id="tspan535">AD Domain</tspan></text>			</g>
			<g
   id="shape13-35"
   v:mID="13"
   v:groupContext="shape"
   transform="translate(4.23079,-4.82376)">
				<title
   id="title540">Sheet.13</title>
				<path
   d="m 19.28,227.29 -8.77,-15.77 c -0.37,-0.68 -0.99,-0.68 -1.37,0 L 0.38,227.29 C 0,227.97 0.3,228.5 1.05,228.5 H 18.6 c 0.76,0 1.05,-0.53 0.68,-1.21 z m -4.26,-0.34 h -3.85 v -2.5 h 1.54 v -1.66 H 10.4 9.63 7.33 v 1.66 h 1.53 v 2.5 H 5.02 v -2.5 h 1.54 v -2.5 h 0.77 2.3 v -1.66 H 8.09 v -2.5 h 3.85 v 2.5 H 10.4 v 1.66 h 2.31 0.77 v 2.5 h 1.54 z"
   class="st15"
   id="path542" />
			</g>
		</g><g
   id="group14-37"
   transform="translate(162.273,-125.095)"
   v:mID="14"
   v:groupContext="group">
			<title
   id="title546">Sheet.14</title>
			<g
   id="shape15-38"
   v:mID="15"
   v:groupContext="shape">
				<title
   id="title548">Sheet.15</title>
				<desc
   id="desc550">Google Cloud Directory Sync</desc>
				<v:textBlock
   v:margins="rect(4,4,4,4)"
   v:tabSpace="42.5197"
   v:verticalAlign="0" />
				<v:textRect
   cx="34.3503"
   cy="214.844"
   width="68.71"
   height="27.3103" />
				<g
   id="shadow15-39"
   v:groupContext="shadow"
   v:shadowOffsetX="0.172555"
   v:shadowOffsetY="-0.985"
   v:shadowType="1"
   transform="translate(0.172555,0.985)"
   class="st4">
					<rect
   x="0"
   y="201.189"
   width="68.7006"
   height="27.310301"
   class="st5"
   id="rect552" />
				</g>
				<rect
   x="0"
   y="201.189"
   width="68.7006"
   height="27.310301"
   class="st6"
   id="rect555" />
				<text
   x="4"
   y="212.39"
   class="st7"
   v:langID="1031"
   id="text559"><v:paragraph /><v:tabList />Google Cloud <v:newlineChar /><tspan
   x="4"
   dy="1.2em"
   class="st16"
   id="tspan557">Directory Sync</tspan></text>			</g>
		</g><g
   id="shape16-45"
   v:mID="16"
   v:groupContext="shape"
   v:layerMember="0"
   transform="translate(131.623,-131.663)">
			<title
   id="title563">Dynamic connector.222</title>
			<path
   d="M 0,221.41 H 30.65"
   class="st17"
   id="path565" />
		</g><g
   id="shape17-51"
   v:mID="17"
   v:groupContext="shape"
   v:layerMember="0"
   transform="translate(230.973,-131.663)">
			<title
   id="title568">Dynamic connector.223</title>
			<path
   d="M 0,221.41 H 48.22"
   class="st17"
   id="path570" />
		</g><g
   id="group18-56"
   transform="translate(406.687,-91.6946)"
   v:mID="18"
   v:groupContext="group">
			<title
   id="title573">Sheet.18</title>
			<g
   id="group19-57"
   v:mID="19"
   v:groupContext="group">
				<title
   id="title575">Cloud Identity.286</title>
				<g
   id="shape20-58"
   v:mID="20"
   v:groupContext="shape">
					<title
   id="title577">Sheet.20</title>
					<desc
   id="desc579">Other Google services</desc>
					<v:textBlock
   v:margins="rect(4,4,4,4)"
   v:tabSpace="42.5197"
   v:verticalAlign="0" />
					<v:textRect
   cx="51.0236"
   cy="214.844"
   width="102.05"
   height="27.3103" />
					<g
   id="shadow20-59"
   v:groupContext="shadow"
   v:shadowOffsetX="0.172555"
   v:shadowOffsetY="-0.985"
   v:shadowType="1"
   transform="translate(0.172555,0.985)"
   class="st4">
						<rect
   x="0"
   y="201.189"
   width="102.047"
   height="27.310301"
   class="st5"
   id="rect581" />
					</g>
					<rect
   x="-5.9999981"
   y="201.189"
   width="102.047"
   height="27.310301"
   class="st6"
   id="rect584" />
					<text
   x="29.51"
   y="212.39"
   class="st19"
   v:langID="1031"
   id="text588"><v:paragraph
   v:indentLeft="25.51" /><v:tabList />Other Google <tspan
   x="29.51"
   dy="1.2em"
   class="st16"
   id="tspan586">services</tspan></text>				</g>
			</g>
			<g
   id="group21-65"
   transform="translate(5.10485,-4.86441)"
   v:mID="21"
   v:groupContext="group">
				<title
   id="title592">Sheet.21</title>
				<g
   id="group22-66"
   v:mID="22"
   v:groupContext="group">
					<title
   id="title594">Sheet.22</title>
					<g
   id="shape23-67"
   v:mID="23"
   v:groupContext="shape"
   transform="translate(6.14391)">
						<title
   id="title596">Sheet.23</title>
						<path
   d="m 0.21,213.59 c 0.17,-0.47 0.42,-0.9 0.79,-1.25 1.45,-1.42 3.86,-1.06 4.86,0.72 0.74,1.36 1.53,2.68 2.29,4.02 1.28,2.23 2.58,4.45 3.84,6.68 1.07,1.87 -0.09,4.23 -2.2,4.55 -1.29,0.19 -2.5,-0.4 -3.18,-1.57 C 5.49,224.78 4.36,222.83 3.24,220.88 3.22,220.84 3.19,220.8 3.16,220.76 3.04,220.66 2.99,220.52 2.91,220.4 2.41,219.52 1.9,218.65 1.4,217.78 1.08,217.21 0.75,216.66 0.43,216.09 0.14,215.58 0,215.03 0.02,214.45 c 0.02,-0.29 0.06,-0.59 0.19,-0.86 z"
   class="st20"
   id="path598" />
					</g>
					<g
   id="shape24-69"
   v:mID="24"
   v:groupContext="shape"
   transform="translate(0.809741,-2.1863)">
						<title
   id="title601">Sheet.24</title>
						<path
   d="m 5.54,215.78 c -0.06,0.26 -0.12,0.53 -0.14,0.82 -0.02,0.62 0.13,1.2 0.45,1.74 0.82,1.41 1.63,2.82 2.44,4.23 0.08,0.13 0.14,0.26 0.21,0.37 -0.44,0.78 -0.89,1.54 -1.34,2.31 -0.63,1.08 -1.25,2.17 -1.89,3.25 -0.03,0 -0.03,-0.02 -0.04,-0.04 -0.01,-0.06 0.01,-0.11 0.03,-0.17 0.3,-1.11 0.05,-2.1 -0.72,-2.95 -0.47,-0.52 -1.06,-0.81 -1.74,-0.91 -0.89,-0.12 -1.68,0.11 -2.39,0.67 -0.13,0.09 -0.21,0.24 -0.36,0.31 -0.03,0 -0.04,-0.01 -0.05,-0.03 0.36,-0.62 0.71,-1.24 1.06,-1.86 1.48,-2.56 2.95,-5.11 4.43,-7.67 0.02,-0.02 0.04,-0.04 0.05,-0.07 z"
   class="st21"
   id="path603" />
					</g>
					<g
   id="shape25-71"
   v:mID="25"
   v:groupContext="shape"
   transform="translate(0,-0.0809741)">
						<title
   id="title606">Sheet.25</title>
						<path
   d="m 0.84,223.3 c 0.14,-0.13 0.27,-0.26 0.43,-0.38 1.8,-1.43 4.52,-0.39 4.91,1.87 0.1,0.54 0.05,1.06 -0.12,1.58 0,0.05 -0.01,0.08 -0.03,0.13 -0.06,0.12 -0.12,0.25 -0.2,0.36 -0.66,1.1 -1.63,1.64 -2.91,1.56 -1.47,-0.11 -2.62,-1.21 -2.82,-2.66 -0.1,-0.71 0.04,-1.37 0.41,-1.98 0.07,-0.13 0.16,-0.26 0.24,-0.39 0.04,-0.03 0.02,-0.09 0.09,-0.09 z"
   class="st22"
   id="path608" />
					</g>
					<g
   id="shape26-73"
   v:mID="26"
   v:groupContext="shape"
   transform="translate(0.754072,-5.18741)">
						<title
   id="title611">Sheet.26</title>
						<path
   d="m 0.09,228.41 c -0.03,0.03 -0.03,0.08 -0.08,0.09 -0.01,-0.05 0.02,-0.08 0.05,-0.12 z"
   class="st21"
   id="path613" />
					</g>
					<g
   id="shape27-75"
   v:mID="27"
   v:groupContext="shape"
   transform="translate(6.00221,-2.08002)">
						<title
   id="title616">Sheet.27</title>
						<path
   d="m 0.03,228.5 c -0.03,-0.05 0,-0.09 0.03,-0.13 0.01,0.01 0.02,0.02 0.03,0.03 z"
   class="st23"
   id="path618" />
					</g>
				</g>
			</g>
		</g><g
   id="group28-77"
   transform="translate(160.107,-193.663)"
   v:mID="28"
   v:groupContext="group">
			<title
   id="title624">Sheet.28</title>
			<g
   id="group29-78"
   transform="translate(0,-2.01028)"
   v:mID="29"
   v:groupContext="group">
				<title
   id="title626">Fill-18</title>
				<g
   id="shape30-79"
   v:mID="30"
   v:groupContext="shape">
					<title
   id="title628">Sheet.30</title>
					<path
   d="m 0,225.02 c 0,-1.91 1.61,-3.48 3.53,-3.48 1.06,0 1.81,0.42 2.38,0.96 l -0.67,0.67 c -0.41,-0.38 -0.96,-0.68 -1.71,-0.68 -1.4,0 -2.5,1.13 -2.5,2.53 0,1.4 1.1,2.53 2.5,2.53 0.91,0 1.42,-0.37 1.75,-0.7 0.28,-0.27 0.45,-0.66 0.52,-1.19 H 3.53 v -0.95 h 3.2 c 0.03,0.17 0.05,0.37 0.05,0.59 0,0.71 -0.2,1.6 -0.83,2.22 -0.61,0.64 -1.39,0.98 -2.42,0.98 C 1.61,228.5 0,226.94 0,225.02 Z"
   class="st24"
   id="path630" />
				</g>
			</g>
			<g
   id="group31-81"
   transform="translate(7.1127,-2.01014)"
   v:mID="31"
   v:groupContext="group">
				<title
   id="title634">Fill-19</title>
				<g
   id="shape32-82"
   v:mID="32"
   v:groupContext="shape">
					<title
   id="title636">Sheet.32</title>
					<path
   d="m 2.25,227.62 c -0.68,0 -1.27,-0.56 -1.27,-1.36 0,-0.81 0.59,-1.36 1.27,-1.36 0.68,0 1.26,0.55 1.26,1.36 0,0.8 -0.58,1.36 -1.26,1.36 z m 0,-3.6 c -1.24,0 -2.25,0.94 -2.25,2.24 0,1.29 1.01,2.24 2.25,2.24 1.24,0 2.24,-0.95 2.24,-2.24 0,-1.3 -1,-2.24 -2.24,-2.24 z"
   class="st24"
   id="path638" />
				</g>
			</g>
			<g
   id="group33-84"
   transform="translate(12.0155,-2.01014)"
   v:mID="33"
   v:groupContext="group">
				<title
   id="title642">Fill-20</title>
				<g
   id="shape34-85"
   v:mID="34"
   v:groupContext="shape">
					<title
   id="title644">Sheet.34</title>
					<path
   d="m 2.25,227.62 c -0.68,0 -1.27,-0.56 -1.27,-1.36 0,-0.81 0.59,-1.36 1.27,-1.36 0.68,0 1.26,0.55 1.26,1.36 0,0.8 -0.58,1.36 -1.26,1.36 z m 0,-3.6 c -1.24,0 -2.25,0.94 -2.25,2.24 0,1.29 1.01,2.24 2.25,2.24 1.24,0 2.25,-0.95 2.25,-2.24 0,-1.3 -1.01,-2.24 -2.25,-2.24 z"
   class="st24"
   id="path646" />
				</g>
			</g>
			<g
   id="group35-87"
   transform="translate(16.9227)"
   v:mID="35"
   v:groupContext="group">
				<title
   id="title650">Fill-21</title>
				<g
   id="shape36-88"
   v:mID="36"
   v:groupContext="shape">
					<title
   id="title652">Sheet.36</title>
					<path
   d="m 2.23,225.61 c -0.68,0 -1.25,-0.57 -1.25,-1.35 0,-0.79 0.57,-1.37 1.25,-1.37 0.67,0 1.2,0.58 1.2,1.37 0,0.78 -0.53,1.35 -1.2,1.35 z m 1.13,-3.46 v 0.36 H 3.32 c -0.22,-0.26 -0.64,-0.5 -1.17,-0.5 -1.12,0 -2.15,0.98 -2.15,2.25 0,1.25 1.03,2.23 2.15,2.23 0.53,0 0.95,-0.24 1.17,-0.51 h 0.04 v 0.32 c 0,0.86 -0.46,1.32 -1.2,1.32 -0.6,0 -0.97,-0.44 -1.13,-0.8 l -0.85,0.36 c 0.24,0.59 0.9,1.32 1.98,1.32 1.16,0 2.13,-0.68 2.13,-2.33 v -4.02 z"
   class="st24"
   id="path654" />
				</g>
			</g>
			<g
   id="group37-90"
   transform="translate(21.8927,-2.1457)"
   v:mID="37"
   v:groupContext="group">
				<title
   id="title658">Fill-22</title>
				<g
   id="shape38-91"
   v:mID="38"
   v:groupContext="shape">
					<title
   id="title660">Sheet.38</title>
					<rect
   x="0"
   y="221.918"
   width="0.98369998"
   height="6.5812101"
   class="st24"
   id="rect662" />
				</g>
			</g>
			<g
   id="group39-93"
   transform="translate(23.3513,-2.01014)"
   v:mID="39"
   v:groupContext="group">
				<title
   id="title666">Fill-23</title>
				<g
   id="shape40-94"
   v:mID="40"
   v:groupContext="shape">
					<title
   id="title668">Sheet.40</title>
					<path
   d="m 2.15,224.89 c 0.39,0 0.72,0.19 0.83,0.47 l -2,0.83 c -0.03,-0.86 0.67,-1.3 1.17,-1.3 z m 0.07,2.73 c -0.5,0 -0.85,-0.23 -1.08,-0.68 l 2.99,-1.24 -0.1,-0.25 c -0.19,-0.5 -0.76,-1.43 -1.92,-1.43 -1.15,0 -2.11,0.91 -2.11,2.24 0,1.26 0.95,2.24 2.22,2.24 1.03,0 1.62,-0.63 1.87,-0.99 L 3.32,227 c -0.25,0.37 -0.6,0.62 -1.1,0.62 z"
   class="st24"
   id="path670" />
				</g>
			</g>
		</g><g
   id="shape41-96"
   v:mID="41"
   v:groupContext="shape"
   v:layerMember="0"
   transform="translate(365.254,-125.095)">
			<title
   id="title675">Dynamic connector.250</title>
			<path
   d="m 0,228.5 v 21.68 h 35.43"
   class="st25"
   id="path677" />
		</g><g
   id="group42-102"
   transform="translate(400.687,-125.095)"
   v:mID="42"
   v:groupContext="group">
			<title
   id="title680">Sheet.42</title>
			<g
   id="group43-103"
   v:mID="43"
   v:groupContext="group">
				<title
   id="title682">Instance</title>
				<g
   id="shape44-104"
   v:mID="44"
   v:groupContext="shape"
   transform="translate(0,-0.814672)">
					<title
   id="title684">Sheet.44</title>
					<desc
   id="desc686">example.com Google Cloud Organization</desc>
					<v:textBlock
   v:margins="rect(4,4,4,4)"
   v:verticalAlign="0" />
					<v:textRect
   cx="51.0236"
   cy="214.844"
   width="102.05"
   height="27.3103" />
					<g
   id="shadow44-105"
   v:groupContext="shadow"
   v:shadowOffsetX="0.172555"
   v:shadowOffsetY="-0.985"
   v:shadowType="1"
   transform="translate(0.172555,0.985)"
   class="st4">
						<rect
   x="0"
   y="201.189"
   width="120"
   height="27.310301"
   class="st5"
   id="rect688" />
					</g>
					<rect
   x="0"
   y="201.189"
   width="120"
   height="27.310301"
   class="st6"
   id="rect691" />
					<text
   x="29.51"
   y="212.39"
   class="st7"
   v:langID="1031"
   id="text695"><v:paragraph
   v:indentLeft="25.51" /><v:tabList />example.com<v:newlineChar /><tspan
   x="29.51"
   dy="1.2em"
   class="st8"
   id="tspan693">Google Cloud Organization</tspan></text>				</g>
			</g>
			<g
   id="shape45-111"
   v:mID="45"
   v:groupContext="shape"
   transform="translate(8.20121,-7.06033)">
				<title
   id="title699">Shape</title>
				<path
   d="M 2.5,223.14 C 1.12,223.14 0,222.18 0,221 c 0,-1.18 1.12,-2.14 2.5,-2.14 1.38,0 2.49,0.96 2.49,2.14 0,1.18 -1.11,2.14 -2.49,2.14 z m 12.48,0 c -1.38,0 -2.5,-0.96 -2.5,-2.14 0,-1.18 1.12,-2.14 2.5,-2.14 1.38,0 2.5,0.96 2.5,2.14 0,1.18 -1.12,2.14 -2.5,2.14 z m -6.24,-5.36 c -1.38,0 -2.5,-0.95 -2.5,-2.14 0,-1.18 1.12,-2.14 2.5,-2.14 1.38,0 2.49,0.96 2.49,2.14 0,1.19 -1.11,2.14 -2.49,2.14 z m 0,10.72 c -1.38,0 -2.5,-0.96 -2.5,-2.14 0,-1.19 1.12,-2.15 2.5,-2.15 1.38,0 2.49,0.96 2.49,2.15 0,1.18 -1.11,2.14 -2.49,2.14 z m 0,-5.89 c -1.04,0 -1.87,-0.72 -1.87,-1.61 0,-0.89 0.83,-1.61 1.87,-1.61 1.03,0 1.87,0.72 1.87,1.61 0,0.89 -0.84,1.61 -1.87,1.61 z m -5,-4.83 c -0.68,0 -1.24,-0.48 -1.24,-1.07 0,-0.59 0.56,-1.07 1.24,-1.07 0.69,0 1.25,0.48 1.25,1.07 0,0.59 -0.56,1.07 -1.25,1.07 z m 0,8.58 c -0.68,0 -1.24,-0.48 -1.24,-1.08 0,-0.59 0.56,-1.07 1.24,-1.07 0.69,0 1.25,0.48 1.25,1.07 0,0.6 -0.56,1.08 -1.25,1.08 z m 9.99,-8.58 c -0.69,0 -1.25,-0.48 -1.25,-1.07 0,-0.59 0.56,-1.07 1.25,-1.07 0.69,0 1.25,0.48 1.25,1.07 0,0.59 -0.56,1.07 -1.25,1.07 z m 0,8.58 c -0.69,0 -1.25,-0.48 -1.25,-1.08 0,-0.59 0.56,-1.07 1.25,-1.07 0.69,0 1.25,0.48 1.25,1.07 0,0.6 -0.56,1.08 -1.25,1.08 z"
   class="st27"
   id="path701" />
			</g>
		</g><g
   id="shape46-113"
   v:mID="46"
   v:groupContext="shape"
   transform="translate(151.745,-18.375)">
			<title
   id="title705">Sheet.46</title>
			<desc
   id="desc707">Third-party</desc>
			<v:textBlock
   v:margins="rect(4,4,4,4)"
   v:tabSpace="42.5197"
   v:verticalAlign="0" />
			<v:textRect
   cx="64.1339"
   cy="198.026"
   width="128.27"
   height="60.9449" />
			<rect
   x="0"
   y="167.554"
   width="128.26801"
   height="60.944901"
   class="st2"
   id="rect709" />
			<text
   x="4"
   y="178.75"
   class="st3"
   v:langID="1031"
   id="text711"><v:paragraph /><v:tabList />Third-party</text>		</g><g
   id="group47-116"
   transform="translate(32.5482,-91.6946)"
   v:mID="47"
   v:groupContext="group">
			<title
   id="title714">Sheet.47</title>
			<g
   id="shape48-117"
   v:mID="48"
   v:groupContext="shape">
				<title
   id="title716">Sheet.48</title>
				<desc
   id="desc718">example.com AD FS</desc>
				<v:textBlock
   v:margins="rect(4,4,4,4)"
   v:tabSpace="42.5197"
   v:verticalAlign="0" />
				<v:textRect
   cx="49.5375"
   cy="214.844"
   width="99.08"
   height="27.3103" />
				<g
   id="shadow48-118"
   v:groupContext="shadow"
   v:shadowOffsetX="0.172555"
   v:shadowOffsetY="-0.985"
   v:shadowType="1"
   transform="translate(0.172555,0.985)"
   class="st4">
					<rect
   x="0"
   y="201.189"
   width="99.074997"
   height="27.310301"
   class="st5"
   id="rect720" />
				</g>
				<rect
   x="0"
   y="201.189"
   width="99.074997"
   height="27.310301"
   class="st6"
   id="rect723" />
				<text
   x="29.51"
   y="212.39"
   class="st7"
   v:langID="1031"
   id="text727"><v:paragraph
   v:indentLeft="25.51" /><v:tabList />example.com<v:newlineChar /><tspan
   x="29.51"
   dy="1.2em"
   class="st8"
   id="tspan725">AD FS</tspan></text>			</g>
			<g
   id="shape49-124"
   v:mID="49"
   v:groupContext="shape"
   transform="translate(4.23079,-4.82376)">
				<title
   id="title730">Sheet.49</title>
				<path
   d="m 19.28,227.29 -8.77,-15.77 c -0.37,-0.68 -0.99,-0.68 -1.37,0 L 0.38,227.29 C 0,227.97 0.3,228.5 1.05,228.5 H 18.6 c 0.76,0 1.05,-0.53 0.68,-1.21 z m -4.26,-0.34 h -3.85 v -2.5 h 1.54 v -1.66 H 10.4 9.63 7.33 v 1.66 h 1.53 v 2.5 H 5.02 v -2.5 h 1.54 v -2.5 h 0.77 2.3 v -1.66 H 8.09 v -2.5 h 3.85 v 2.5 H 10.4 v 1.66 h 2.31 0.77 v 2.5 h 1.54 z"
   class="st15"
   id="path732" />
			</g>
		</g><g
   id="shape50-126"
   v:mID="50"
   v:groupContext="shape"
   v:layerMember="0"
   transform="translate(131.623,-104.022)">
			<title
   id="title736">Dynamic connector.273</title>
			<path
   d="M 0,228.5 H 157.02 V 207.43"
   class="st25"
   id="path738" />
		</g><g
   id="shape51-131"
   v:mID="51"
   v:groupContext="shape"
   v:layerMember="0"
   transform="matrix(0.77016672,0,0,1,400.15514,-131.663)">
			<title
   id="title741">Dynamic connector.274</title>
			<path
   d="M 0,221.41 H -28.42"
   class="st28"
   id="path743" />
		</g><g
   id="group52-137"
   transform="translate(162.273,-25.4616)"
   v:mID="52"
   v:groupContext="group">
			<title
   id="title746">Sheet.52</title>
			<g
   id="shape53-138"
   v:mID="53"
   v:groupContext="shape"
   transform="translate(2.83465)">
				<title
   id="title748">Cloud Identity.225</title>
				<desc
   id="desc750">Other corporate SaaS applications</desc>
				<v:textBlock
   v:margins="rect(4,4,4,4)"
   v:tabSpace="42.5197"
   v:verticalAlign="0" />
				<v:textRect
   cx="51.0236"
   cy="214.844"
   width="102.05"
   height="27.3103" />
				<g
   id="shadow53-139"
   v:groupContext="shadow"
   v:shadowOffsetX="0.172555"
   v:shadowOffsetY="-0.985"
   v:shadowType="1"
   transform="translate(0.172555,0.985)"
   class="st4">
					<rect
   x="0"
   y="201.189"
   width="102.047"
   height="27.310301"
   class="st5"
   id="rect752" />
				</g>
				<rect
   x="0"
   y="201.189"
   width="102.047"
   height="27.310301"
   class="st6"
   id="rect755" />
				<text
   x="29.51"
   y="212.39"
   class="st19"
   v:langID="1031"
   id="text759"><v:paragraph
   v:indentLeft="25.51" /><v:tabList />Other corporate <v:newlineChar /><tspan
   x="29.51"
   dy="1.2em"
   class="st16"
   id="tspan757">SaaS applications</tspan></text>			</g>
			<g
   id="group54-145"
   transform="translate(0,-4.25197)"
   v:mID="54"
   v:groupContext="group">
				<title
   id="title762">Sheet.54</title>
				<g
   id="group55-146"
   v:mID="55"
   v:groupContext="group">
					<title
   id="title764">Cloud Identity.286</title>
					<g
   id="shape56-147"
   v:mID="56"
   v:groupContext="shape">
						<title
   id="title766">Sheet.56</title>
						<desc
   id="desc768">Other corporate SaaS applications</desc>
						<v:textBlock
   v:margins="rect(4,4,4,4)"
   v:tabSpace="42.5197"
   v:verticalAlign="0" />
						<v:textRect
   cx="51.0236"
   cy="214.844"
   width="102.05"
   height="27.3103" />
						<g
   id="shadow56-148"
   v:groupContext="shadow"
   v:shadowOffsetX="0.172555"
   v:shadowOffsetY="-0.985"
   v:shadowType="1"
   transform="translate(0.172555,0.985)"
   class="st4">
							<rect
   x="0"
   y="201.189"
   width="102.047"
   height="27.310301"
   class="st5"
   id="rect770" />
						</g>
						<rect
   x="0"
   y="201.189"
   width="102.047"
   height="27.310301"
   class="st6"
   id="rect773" />
						<text
   x="29.51"
   y="212.39"
   class="st19"
   v:langID="1031"
   id="text777"><v:paragraph
   v:indentLeft="25.51" /><v:tabList />Other corporate <v:newlineChar /><tspan
   x="29.51"
   dy="1.2em"
   class="st16"
   id="tspan775">SaaS applications</tspan></text>					</g>
				</g>
				<g
   id="shape57-154"
   v:mID="57"
   v:groupContext="shape"
   transform="translate(8.50394,-7.08661)">
					<title
   id="title781">Sheet.57</title>
					<rect
   x="0"
   y="217.16"
   width="14.1732"
   height="11.3386"
   class="st29"
   id="rect783" />
				</g>
				<g
   id="shape58-156"
   v:mID="58"
   v:groupContext="shape"
   transform="translate(5.52756,-9.77953)">
					<title
   id="title786">Sheet.58</title>
					<rect
   x="0"
   y="217.16"
   width="14.1732"
   height="11.3386"
   class="st29"
   id="rect788" />
				</g>
			</g>
		</g><g
   id="shape59-158"
   v:mID="59"
   v:groupContext="shape"
   v:layerMember="0"
   transform="translate(82.0857,-91.6946)">
			<title
   id="title793">Dynamic connector.275</title>
			<path
   d="m 0,228.5 v 48.32 h 80.19"
   class="st25"
   id="path795" />
		</g><g
   id="shape60-163"
   v:mID="60"
   v:groupContext="shape"
   transform="translate(181.367,-105.54)">
			<title
   id="title798">Sheet.60</title>
			<desc
   id="desc800">Single sign-on</desc>
			<v:textBlock
   v:margins="rect(4,4,4,4)"
   v:tabSpace="42.5197" />
			<v:textRect
   cx="42.5197"
   cy="223.538"
   width="85.04"
   height="9.92126" />
			<rect
   x="0"
   y="218.578"
   width="85.039398"
   height="9.9212599"
   class="st30"
   id="rect802" />
			<text
   x="18.040001"
   y="225.94"
   class="st31"
   v:langID="1031"
   id="text804"><v:paragraph
   v:horizAlign="1" /><v:tabList />Single sign-on</text>		</g>
</svg>
