<svg id="Layer_1" data-name="Layer 1" xmlns="http://www.w3.org/2000/svg" xmlns:xlink="http://www.w3.org/1999/xlink" viewBox="0 0 990.3 344.29"><defs><style>.cls-1,.cls-14,.cls-2,.cls-6{fill:none;}.cls-2,.cls-6,.cls-7{stroke:#afbdc4;stroke-miterlimit:10;}.cls-2{stroke-linecap:round;stroke-width:1.5px;stroke-dasharray:2 4;}.cls-3{font-size:14px;}.cls-10,.cls-20,.cls-3{fill:#3c4043;}.cls-10,.cls-3{font-family:GoogleSans-Regular, Google Sans;}.cls-11,.cls-16,.cls-4,.cls-7{fill:#fff;}.cls-5{fill:#2b5bb6;}.cls-14,.cls-6{stroke-linecap:square;stroke-width:2px;}.cls-6{stroke-dasharray:1 1;}.cls-7{stroke-width:0.75px;}.cls-8{clip-path:url(#clip-path);}.cls-9{fill:#4285f4;}.cls-10{font-size:12px;}.cls-11,.cls-16{font-size:16px;font-family:GoogleSans-Medium, Google Sans;font-weight:500;}.cls-12,.cls-16{letter-spacing:-0.01em;}.cls-13{letter-spacing:0.01em;}.cls-14{stroke:#34a853;}.cls-15{clip-path:url(#clip-path-2);}.cls-17{letter-spacing:-0.01em;}.cls-18{letter-spacing:0em;}.cls-19{clip-path:url(#clip-path-3);}.cls-21{letter-spacing:0em;}.cls-22{clip-path:url(#clip-path-4);}.cls-23{letter-spacing:-0.03em;}.cls-24{fill:#afbdc4;fill-rule:evenodd;}</style><clipPath id="clip-path" transform="translate(-43.67 -28.55)"><rect class="cls-1" x="200.01" y="39.83" width="187.32" height="327.31" rx="4"/></clipPath><clipPath id="clip-path-2" transform="translate(-43.67 -28.55)"><rect class="cls-1" x="408.01" y="39.83" width="187.32" height="327.31" rx="4"/></clipPath><clipPath id="clip-path-3" transform="translate(-43.67 -28.55)"><rect class="cls-1" x="617.01" y="39.83" width="187.32" height="327.31" rx="4"/></clipPath><clipPath id="clip-path-4" transform="translate(-43.67 -28.55)"><rect class="cls-1" x="825.01" y="39.83" width="187.32" height="327.31" rx="4"/></clipPath></defs><title>DIAGRAM_Google Cloud Adoption Framework</title><line class="cls-2" x1="126.64" y1="280" x2="820.89" y2="280"/><line class="cls-2" x1="126.64" y1="99.7" x2="861.01" y2="99.7"/><line class="cls-2" x1="126.64" y1="189.73" x2="820.89" y2="189.73"/><text class="cls-3" transform="translate(0 307.8)">Transformational</text><path class="cls-4" d="M91.75,300.54a2,2,0,1,1-2,2,2,2,0,0,1,2-2m0-2a4,4,0,1,0,4,4,4,4,0,0,0-4-4Z" transform="translate(-43.67 -28.55)"/><path class="cls-4" d="M97.75,290.54a2,2,0,1,1-2,2,2,2,0,0,1,2-2m0-2a4,4,0,1,0,4,4,4,4,0,0,0-4-4Z" transform="translate(-43.67 -28.55)"/><path class="cls-4" d="M103.75,300.54a2,2,0,1,1-2,2,2,2,0,0,1,2-2m0-2a4,4,0,1,0,4,4,4,4,0,0,0-4-4Z" transform="translate(-43.67 -28.55)"/><rect class="cls-5" x="35.08" y="250.19" width="38" height="37.61" rx="18.8"/><path class="cls-4" d="M97.75,295a4,4,0,1,0-4-4A4,4,0,0,0,97.75,295Zm0-6a2,2,0,1,1-2,2A2,2,0,0,1,97.75,289Zm-6,9a4,4,0,1,0,4,4A4,4,0,0,0,91.75,298Zm0,6a2,2,0,1,1,2-2A2,2,0,0,1,91.75,304Zm6-7.9a1.9,1.9,0,1,0,1.9,1.9A1.9,1.9,0,0,0,97.75,296.14Zm6,1.9a4,4,0,1,0,4,4A4,4,0,0,0,103.75,298Zm0,6a2,2,0,1,1,2-2A2,2,0,0,1,103.75,304Z" transform="translate(-43.67 -28.55)"/><text class="cls-3" transform="translate(29.61 127.59)">Tactical</text><path class="cls-4" d="M91.75,118.63a2,2,0,1,1-2,2,2,2,0,0,1,2-2m0-2a4,4,0,1,0,4,4,4,4,0,0,0-4-4Z" transform="translate(-43.67 -28.55)"/><path class="cls-4" d="M97.75,108.63a2,2,0,1,1-2,2,2,2,0,0,1,2-2m0-2a4,4,0,1,0,4,4,4,4,0,0,0-4-4Z" transform="translate(-43.67 -28.55)"/><path class="cls-4" d="M103.75,118.63a2,2,0,1,1-2,2,2,2,0,0,1,2-2m0-2a4,4,0,1,0,4,4,4,4,0,0,0-4-4Z" transform="translate(-43.67 -28.55)"/><rect class="cls-5" x="35.08" y="68.27" width="38" height="37.61" rx="18.8"/><path class="cls-4" d="M91.75,117.63a2,2,0,1,1-2,2,2,2,0,0,1,2-2m0-2a4,4,0,1,0,4,4,4,4,0,0,0-4-4Z" transform="translate(-43.67 -28.55)"/><path class="cls-4" d="M97.75,107.63a2,2,0,1,1-2,2,2,2,0,0,1,2-2m0-2a4,4,0,1,0,4,4,4,4,0,0,0-4-4Z" transform="translate(-43.67 -28.55)"/><path class="cls-4" d="M103.75,117.63a2,2,0,1,1-2,2,2,2,0,0,1,2-2m0-2a4,4,0,1,0,4,4,4,4,0,0,0-4-4Z" transform="translate(-43.67 -28.55)"/><text class="cls-3" transform="translate(25.16 217.1)">Strategic</text><path class="cls-4" d="M91.75,209.17a2,2,0,1,1-2,2,2,2,0,0,1,2-2m0-2a4,4,0,1,0,4,4,4,4,0,0,0-4-4Z" transform="translate(-43.67 -28.55)"/><path class="cls-4" d="M97.75,199.17a2,2,0,1,1-2,2,2,2,0,0,1,2-2m0-2a4,4,0,1,0,4,4,4,4,0,0,0-4-4Z" transform="translate(-43.67 -28.55)"/><path class="cls-4" d="M103.75,209.17a2,2,0,1,1-2,2,2,2,0,0,1,2-2m0-2a4,4,0,1,0,4,4,4,4,0,0,0-4-4Z" transform="translate(-43.67 -28.55)"/><rect class="cls-5" x="35.08" y="158.82" width="38" height="37.61" rx="18.8"/><path class="cls-4" d="M94.75,206.17a2,2,0,1,0,2,2A2,2,0,0,0,94.75,206.17Zm5-3a2,2,0,1,0-2,2A2,2,0,0,0,99.75,203.17Zm-2-7a10,10,0,1,0,10,10A10,10,0,0,0,97.75,196.17Zm0,18a8,8,0,1,1,8-8A8,8,0,0,1,97.75,214.17Zm3-8a2,2,0,1,0,2,2A2,2,0,0,0,100.75,206.17Z" transform="translate(-43.67 -28.55)"/><line class="cls-6" x1="126.41" y1="13.24" x2="126.41" y2="339.46"/><rect class="cls-7" x="156.33" y="11.28" width="187.32" height="327.46" rx="4"/><g class="cls-8"><rect class="cls-9" x="155.61" width="209.69" height="60.78"/></g><text class="cls-10" transform="translate(189.1 100.89)">Self-taught, <tspan x="0" y="14.4">third-party reliance</tspan></text><text class="cls-11" transform="translate(228.17 42.69)"><tspan class="cls-12">L</tspan><tspan class="cls-13" x="8.34" y="0">e</tspan><tspan x="17.63" y="0">arn</tspan></text><path id="Combined-Shape" class="cls-14" d="M219.37,129.41l6.13-6,.07-.07.14.14-.07.07-6.13,6h0l-.14.13-.07-.06-3.1-3.06-.08-.07.15-.14.07.07Z" transform="translate(-43.67 -28.55)"/><text class="cls-10" transform="translate(189.1 194.11)">Organized training, <tspan x="0" y="14.4">third-party assisted</tspan></text><path id="Combined-Shape-2" data-name="Combined-Shape" class="cls-14" d="M219.37,221.48l6.13-6,.07-.07.14.14-.07.07-6.13,6h0l-.14.14-.07-.07-3.1-3.06-.08-.07.15-.14.07.07Z" transform="translate(-43.67 -28.55)"/><rect class="cls-7" x="364.33" y="11.28" width="187.32" height="327.46" rx="4"/><g class="cls-15"><rect class="cls-9" x="348.61" width="224.69" height="60.78"/></g><text class="cls-10" transform="translate(397.1 100.89)">Teams by function, <tspan x="0" y="14.4">heroic project manager</tspan></text><text class="cls-16" transform="translate(440.65 42.69)">L<tspan class="cls-13" x="8.34" y="0">e</tspan><tspan class="cls-17" x="17.63" y="0">a</tspan><tspan class="cls-18" x="26.3" y="0">d</tspan></text><path id="Combined-Shape-3" data-name="Combined-Shape" class="cls-14" d="M427.37,129.41l6.13-6,.07-.07.14.14-.07.07-6.13,6h0l-.14.13-.07-.06-3.1-3.06-.08-.07.15-.14.07.07Z" transform="translate(-43.67 -28.55)"/><text class="cls-10" transform="translate(397.1 194.11)">New cross-functional <tspan x="0" y="14.4">cloud team</tspan></text><path id="Combined-Shape-4" data-name="Combined-Shape" class="cls-14" d="M427.37,221.48l6.13-6,.07-.07.14.14-.07.07-6.13,6h0l-.14.14-.07-.07-3.1-3.06-.08-.07.15-.14.07.07Z" transform="translate(-43.67 -28.55)"/><rect class="cls-7" x="573.33" y="11.28" width="187.32" height="327.46" rx="4"/><g class="cls-19"><rect class="cls-9" x="557.61" width="224.69" height="60.78"/></g><path class="cls-20" d="M652.49,129a4.26,4.26,0,0,1-1.6-1.61,4.81,4.81,0,0,1,0-4.58,4.26,4.26,0,0,1,1.6-1.61,4.52,4.52,0,0,1,2.27-.59,4.08,4.08,0,0,1,1.76.37,4,4,0,0,1,1.39,1l-.73.71a3.1,3.1,0,0,0-1.08-.87,3.14,3.14,0,0,0-1.34-.28,3.46,3.46,0,0,0-1.71.44,3.21,3.21,0,0,0-1.24,1.24,3.84,3.84,0,0,0,0,3.68,3.15,3.15,0,0,0,1.24,1.24,3.46,3.46,0,0,0,1.71.44,3.34,3.34,0,0,0,2.65-1.29l.75.72a4.24,4.24,0,0,1-1.48,1.12,4.36,4.36,0,0,1-1.92.42A4.52,4.52,0,0,1,652.49,129Z" transform="translate(-43.67 -28.55)"/><path class="cls-20" d="M659.42,120.85h1v2.53l-.05.84h.05a1.88,1.88,0,0,1,.8-.78,2.33,2.33,0,0,1,1.19-.32,2.16,2.16,0,0,1,1.7.66,2.46,2.46,0,0,1,.59,1.73v3.93h-1v-3.77a1.64,1.64,0,0,0-.42-1.23,1.53,1.53,0,0,0-1.09-.39,1.43,1.43,0,0,0-.88.29,2.09,2.09,0,0,0-.64.74,2.14,2.14,0,0,0-.23,1v3.41h-1Z" transform="translate(-43.67 -28.55)"/><path class="cls-20" d="M666.94,129.36a1.92,1.92,0,0,1-1.1-1.77,1.79,1.79,0,0,1,.73-1.52,3,3,0,0,1,1.85-.55,4.08,4.08,0,0,1,1,.12,3.19,3.19,0,0,1,.73.28v-.37a1.38,1.38,0,0,0-.48-1.1,1.76,1.76,0,0,0-1.21-.41,2,2,0,0,0-1,.22,1.63,1.63,0,0,0-.68.62l-.77-.58a2.37,2.37,0,0,1,1-.86,3.07,3.07,0,0,1,1.4-.32,2.78,2.78,0,0,1,2,.66,2.32,2.32,0,0,1,.71,1.78v3.88h-1v-.88h0a2.14,2.14,0,0,1-.79.76,2.37,2.37,0,0,1-1.19.31A2.59,2.59,0,0,1,666.94,129.36Zm2.26-.9a2.07,2.07,0,0,0,.71-.7,1.94,1.94,0,0,0,.26-1,2.76,2.76,0,0,0-.71-.31,3.19,3.19,0,0,0-.89-.12,2,2,0,0,0-1.26.35,1.09,1.09,0,0,0-.43.9,1,1,0,0,0,.39.82,1.52,1.52,0,0,0,1,.31A1.84,1.84,0,0,0,669.2,128.46Z" transform="translate(-43.67 -28.55)"/><path class="cls-20" d="M672.56,123.32h1v.9h.05a2,2,0,0,1,.8-.78,2.35,2.35,0,0,1,1.18-.32,2.14,2.14,0,0,1,1.68.65,2.48,2.48,0,0,1,.59,1.74v3.93h-1v-3.77a1.65,1.65,0,0,0-.41-1.24,1.6,1.6,0,0,0-1.12-.38,1.5,1.5,0,0,0-.88.27,2,2,0,0,0-.61.73,2.19,2.19,0,0,0-.21.94v3.45h-1Z" transform="translate(-43.67 -28.55)"/><path class="cls-20" d="M680.2,131.72a2.47,2.47,0,0,1-1-1.22l.93-.39a1.79,1.79,0,0,0,.68.86,1.9,1.9,0,0,0,1.12.33,2,2,0,0,0,1.47-.53,2.07,2.07,0,0,0,.52-1.51v-.69h-.05a2.14,2.14,0,0,1-.84.76,2.57,2.57,0,0,1-1.25.3,2.68,2.68,0,0,1-1.44-.41,2.93,2.93,0,0,1-1-1.16,3.9,3.9,0,0,1,0-3.36,2.87,2.87,0,0,1,1-1.16,2.61,2.61,0,0,1,1.44-.42,2.57,2.57,0,0,1,1.25.3,2.16,2.16,0,0,1,.84.77H684v-.87h1v5.88a3,3,0,0,1-.81,2.25,3,3,0,0,1-2.15.77A3,3,0,0,1,680.2,131.72Zm2.78-3.3a1.94,1.94,0,0,0,.72-.8,2.67,2.67,0,0,0,.27-1.24,2.73,2.73,0,0,0-.27-1.26,2,2,0,0,0-.72-.8,1.9,1.9,0,0,0-1-.27,1.85,1.85,0,0,0-1,.28,2,2,0,0,0-.73.8,2.71,2.71,0,0,0-.27,1.25,2.74,2.74,0,0,0,.27,1.25,2,2,0,0,0,.73.8,1.93,1.93,0,0,0,1,.27A1.82,1.82,0,0,0,683,128.42Z" transform="translate(-43.67 -28.55)"/><path class="cls-20" d="M687.61,129.21a2.9,2.9,0,0,1-1.09-1.16,3.48,3.48,0,0,1-.39-1.66,3.55,3.55,0,0,1,.37-1.63,2.91,2.91,0,0,1,1-1.19,2.75,2.75,0,0,1,1.56-.45,2.93,2.93,0,0,1,1.56.41,2.61,2.61,0,0,1,1,1.11,3.64,3.64,0,0,1,.35,1.62,1.42,1.42,0,0,1,0,.31h-4.84a2.34,2.34,0,0,0,.34,1.17,1.87,1.87,0,0,0,.76.72,2.07,2.07,0,0,0,1,.24,2,2,0,0,0,1.82-1.1l.86.42a2.89,2.89,0,0,1-2.71,1.61A3,3,0,0,1,687.61,129.21Zm3.33-3.48a2,2,0,0,0-.21-.77,1.64,1.64,0,0,0-.61-.65,2,2,0,0,0-1-.26,1.73,1.73,0,0,0-1.22.46,2.23,2.23,0,0,0-.65,1.22Z" transform="translate(-43.67 -28.55)"/><path class="cls-20" d="M696.08,122a.7.7,0,0,1,0-1,.69.69,0,0,1,.51-.21.72.72,0,0,1,.52.21.7.7,0,0,1,.22.51.73.73,0,0,1-.74.73A.67.67,0,0,1,696.08,122Zm0,1.34h1v6.12h-1Z" transform="translate(-43.67 -28.55)"/><path class="cls-20" d="M699.2,129.17a2.6,2.6,0,0,1-.94-1.19l.91-.4a1.93,1.93,0,0,0,.68.85,1.75,1.75,0,0,0,1,.3,1.94,1.94,0,0,0,1-.24.75.75,0,0,0,.08-1.28,3.16,3.16,0,0,0-1-.4l-.74-.19A2.64,2.64,0,0,1,699,126a1.4,1.4,0,0,1-.47-1.11,1.42,1.42,0,0,1,.32-.93,2,2,0,0,1,.84-.62,3,3,0,0,1,1.14-.22,3,3,0,0,1,1.44.35,2,2,0,0,1,.89,1l-.89.41a1.47,1.47,0,0,0-1.45-.81,1.58,1.58,0,0,0-.88.23.69.69,0,0,0-.38.59.68.68,0,0,0,.26.55,2.15,2.15,0,0,0,.8.34l.88.23a2.9,2.9,0,0,1,1.36.68,1.49,1.49,0,0,1,.46,1.1,1.6,1.6,0,0,1-.33,1,2.06,2.06,0,0,1-.87.65,3.25,3.25,0,0,1-1.23.23A2.78,2.78,0,0,1,699.2,129.17Z" transform="translate(-43.67 -28.55)"/><path class="cls-20" d="M707.66,129.17a2.6,2.6,0,0,1-.94-1.19l.91-.4a1.93,1.93,0,0,0,.68.85,1.75,1.75,0,0,0,1,.3,1.94,1.94,0,0,0,1-.24.75.75,0,0,0,.08-1.28,3.16,3.16,0,0,0-1-.4l-.74-.19a2.64,2.64,0,0,1-1.2-.62,1.4,1.4,0,0,1-.47-1.11,1.42,1.42,0,0,1,.32-.93,2,2,0,0,1,.84-.62,3,3,0,0,1,1.14-.22,3,3,0,0,1,1.44.35,2,2,0,0,1,.89,1l-.89.41a1.47,1.47,0,0,0-1.45-.81,1.58,1.58,0,0,0-.88.23.69.69,0,0,0-.38.59.68.68,0,0,0,.26.55,2.15,2.15,0,0,0,.8.34l.88.23a2.9,2.9,0,0,1,1.36.68,1.49,1.49,0,0,1,.46,1.1,1.6,1.6,0,0,1-.33,1,2.06,2.06,0,0,1-.87.65,3.25,3.25,0,0,1-1.23.23A2.78,2.78,0,0,1,707.66,129.17Z" transform="translate(-43.67 -28.55)"/><path class="cls-20" d="M712.84,120.85h1v8.59h-1Z" transform="translate(-43.67 -28.55)"/><path class="cls-20" d="M716.57,129.2a3,3,0,0,1-1.12-1.18,3.37,3.37,0,0,1-.4-1.64,3.41,3.41,0,0,1,.4-1.65,3.14,3.14,0,0,1,5.49,0,3.53,3.53,0,0,1,.4,1.65,3.49,3.49,0,0,1-.4,1.64,3.05,3.05,0,0,1-1.13,1.18,3.27,3.27,0,0,1-3.24,0Zm2.67-.78a2,2,0,0,0,.78-.81,2.69,2.69,0,0,0,0-2.47,2.06,2.06,0,0,0-1.83-1.09,2.07,2.07,0,0,0-1.05.28,2.12,2.12,0,0,0-.79.81,2.77,2.77,0,0,0,0,2.47,2.09,2.09,0,0,0,1.84,1.09A2,2,0,0,0,719.24,128.42Z" transform="translate(-43.67 -28.55)"/><path class="cls-20" d="M721.85,123.32h1l1.46,4.83h0l1.54-4.83H727l1.54,4.82h0l1.45-4.82h1l-2,6.12h-1l-1.59-4.89-1.57,4.89h-1Z" transform="translate(-43.67 -28.55)"/><path class="cls-20" d="M735.39,129.36a1.87,1.87,0,0,1-1.1-1.77,1.79,1.79,0,0,1,.73-1.52,3,3,0,0,1,1.85-.55,4.13,4.13,0,0,1,1,.12,3.19,3.19,0,0,1,.73.28v-.37a1.38,1.38,0,0,0-.48-1.1,1.78,1.78,0,0,0-1.21-.41,2,2,0,0,0-.95.22,1.72,1.72,0,0,0-.69.62l-.76-.58a2.37,2.37,0,0,1,1-.86,3.06,3.06,0,0,1,1.39-.32,2.79,2.79,0,0,1,2,.66,2.32,2.32,0,0,1,.71,1.78v3.88h-1v-.88h0a2.22,2.22,0,0,1-.79.76,2.37,2.37,0,0,1-1.19.31A2.59,2.59,0,0,1,735.39,129.36Zm2.26-.9a2,2,0,0,0,.7-.7,1.85,1.85,0,0,0,.27-1,2.76,2.76,0,0,0-.71-.31,3.24,3.24,0,0,0-.89-.12,2,2,0,0,0-1.26.35,1.09,1.09,0,0,0-.43.9,1,1,0,0,0,.38.82,1.55,1.55,0,0,0,1,.31A1.84,1.84,0,0,0,737.65,128.46Z" transform="translate(-43.67 -28.55)"/><path class="cls-20" d="M741,123.32h1v.9h0a1.94,1.94,0,0,1,.8-.78,2.35,2.35,0,0,1,1.18-.32,2.15,2.15,0,0,1,1.68.65,2.47,2.47,0,0,1,.58,1.74v3.93h-1v-3.77a1.65,1.65,0,0,0-.4-1.24,1.62,1.62,0,0,0-1.12-.38,1.5,1.5,0,0,0-.88.27,2,2,0,0,0-.61.73,2.19,2.19,0,0,0-.21.94v3.45h-1Z" transform="translate(-43.67 -28.55)"/><path class="cls-20" d="M748.85,129.21a2.88,2.88,0,0,1-1.05-1.16,3.77,3.77,0,0,1,0-3.34,2.84,2.84,0,0,1,1.05-1.17,2.8,2.8,0,0,1,1.48-.42,2.51,2.51,0,0,1,1.26.32,2.29,2.29,0,0,1,.84.79h.05l-.05-.85v-2.53h1v8.59h-1v-.9h-.05a2.33,2.33,0,0,1-.84.77,2.51,2.51,0,0,1-1.26.32A2.71,2.71,0,0,1,748.85,129.21Zm2.6-.79a2.13,2.13,0,0,0,.75-.82,2.64,2.64,0,0,0,.28-1.22,2.69,2.69,0,0,0-.28-1.23,2.1,2.1,0,0,0-.75-.81,1.79,1.79,0,0,0-1-.29,1.84,1.84,0,0,0-1,.29,2.06,2.06,0,0,0-.75.82,2.67,2.67,0,0,0-.28,1.22,2.71,2.71,0,0,0,.28,1.22,2.13,2.13,0,0,0,.75.82,1.92,1.92,0,0,0,1,.28A1.87,1.87,0,0,0,751.45,128.42Z" transform="translate(-43.67 -28.55)"/><path class="cls-20" d="M650.53,137.72h1v1h0a1.64,1.64,0,0,1,.69-.84,2,2,0,0,1,1.08-.34,1.74,1.74,0,0,1,.72.14v1.09a1.84,1.84,0,0,0-.86-.19,1.42,1.42,0,0,0-.82.25,1.78,1.78,0,0,0-.59.68,1.92,1.92,0,0,0-.22.92v3.43h-1Z" transform="translate(-43.67 -28.55)"/><path class="cls-20" d="M655.11,136.38a.7.7,0,0,1,0-1,.73.73,0,0,1,.52-.21.69.69,0,0,1,.51.21.67.67,0,0,1,.22.51.73.73,0,0,1-.73.73A.7.7,0,0,1,655.11,136.38Zm0,1.34h1v6.12h-1Z" transform="translate(-43.67 -28.55)"/><path class="cls-20" d="M658.23,143.57a2.6,2.6,0,0,1-.94-1.19l.92-.4a1.79,1.79,0,0,0,1.66,1.15,1.91,1.91,0,0,0,1-.24.74.74,0,0,0,.08-1.28,2.79,2.79,0,0,0-1-.4l-.74-.19a2.64,2.64,0,0,1-1.2-.62,1.44,1.44,0,0,1-.47-1.11,1.48,1.48,0,0,1,.32-.93,1.94,1.94,0,0,1,.85-.62,3,3,0,0,1,1.13-.22,3,3,0,0,1,1.44.35,1.94,1.94,0,0,1,.89,1l-.88.41a1.5,1.5,0,0,0-1.46-.81,1.7,1.7,0,0,0-.88.23.69.69,0,0,0-.38.6.65.65,0,0,0,.27.54,2.09,2.09,0,0,0,.79.34l.89.23a2.86,2.86,0,0,1,1.35.68,1.47,1.47,0,0,1,.46,1.1,1.65,1.65,0,0,1-.32,1,2.09,2.09,0,0,1-.88.65,3.25,3.25,0,0,1-1.23.23A2.86,2.86,0,0,1,658.23,143.57Z" transform="translate(-43.67 -28.55)"/><path class="cls-20" d="M663.41,135.24h1v5.4l2.87-2.92h1.3v.05l-2.4,2.42,2.46,3.6v.05h-1.21l-2-2.94-1,1v1.89h-1Z" transform="translate(-43.67 -28.55)"/><path class="cls-20" d="M671.35,143.45l-2.54-5.73h1.11l1.92,4.55h0l1.85-4.55h1.1L671,146.43h-1Z" transform="translate(-43.67 -28.55)"/><path class="cls-20" d="M675.52,144.83l.64-1a.69.69,0,0,1-.39-.23.71.71,0,0,1-.16-.47.69.69,0,0,1,.22-.53.76.76,0,0,1,1.09,0,.69.69,0,0,1,.22.53,1,1,0,0,1-.08.39,3.54,3.54,0,0,1-.25.43l-.8,1.2Z" transform="translate(-43.67 -28.55)"/><path class="cls-20" d="M682.54,143.6a3,3,0,0,1-1.12-1.18,3.37,3.37,0,0,1-.4-1.64,3.41,3.41,0,0,1,.4-1.65,3,3,0,0,1,1.12-1.17,3.2,3.2,0,0,1,3.24,0,2.93,2.93,0,0,1,1.12,1.17,3.42,3.42,0,0,1,.41,1.65,3.38,3.38,0,0,1-.41,1.64,3,3,0,0,1-1.12,1.18,3.27,3.27,0,0,1-3.24,0Zm2.67-.78A2,2,0,0,0,686,142a2.44,2.44,0,0,0,.3-1.23,2.47,2.47,0,0,0-.3-1.24,2.06,2.06,0,0,0-1.83-1.09,2.1,2.1,0,0,0-1.06.28,2.17,2.17,0,0,0-.78.81,2.47,2.47,0,0,0-.29,1.24,2.43,2.43,0,0,0,.29,1.23,2.06,2.06,0,0,0,1.84,1.09A2,2,0,0,0,685.21,142.82Z" transform="translate(-43.67 -28.55)"/><path class="cls-20" d="M688.45,137.72h1v.91h.05a2.26,2.26,0,0,1,.83-.79,2.5,2.5,0,0,1,1.25-.32,2.75,2.75,0,0,1,1.49.42,3,3,0,0,1,1.06,1.17,3.86,3.86,0,0,1,0,3.34,3,3,0,0,1-1.06,1.16,2.75,2.75,0,0,1-1.49.42,2.5,2.5,0,0,1-1.25-.32,2.22,2.22,0,0,1-.83-.77h-.05l.05.84v2.65h-1Zm4,5.1a2.16,2.16,0,0,0,.75-.83,2.78,2.78,0,0,0,0-2.43,2.06,2.06,0,0,0-.75-.82,1.85,1.85,0,0,0-2,0,2.1,2.1,0,0,0-.75.81,2.91,2.91,0,0,0,0,2.45,2.2,2.2,0,0,0,.75.82,1.91,1.91,0,0,0,2,0Z" transform="translate(-43.67 -28.55)"/><path class="cls-20" d="M696.16,143.57a2.51,2.51,0,0,1-.93-1.19l.91-.4a1.81,1.81,0,0,0,.68.85,1.75,1.75,0,0,0,1,.3,1.9,1.9,0,0,0,1-.24.74.74,0,0,0,.08-1.28,2.79,2.79,0,0,0-1-.4l-.74-.19a2.64,2.64,0,0,1-1.2-.62,1.44,1.44,0,0,1-.47-1.11,1.48,1.48,0,0,1,.32-.93,1.94,1.94,0,0,1,.85-.62,3,3,0,0,1,1.14-.22,2.94,2.94,0,0,1,1.43.35,1.94,1.94,0,0,1,.89,1l-.88.41a1.5,1.5,0,0,0-1.46-.81,1.7,1.7,0,0,0-.88.23.69.69,0,0,0-.38.6.65.65,0,0,0,.27.54,2.09,2.09,0,0,0,.79.34l.89.23a2.86,2.86,0,0,1,1.35.68,1.47,1.47,0,0,1,.46,1.1,1.65,1.65,0,0,1-.32,1,2.09,2.09,0,0,1-.88.65,3.23,3.23,0,0,1-1.22.23A2.87,2.87,0,0,1,696.16,143.57Z" transform="translate(-43.67 -28.55)"/><path class="cls-20" d="M704.13,135.24h1v2.54l0,.84h0a1.88,1.88,0,0,1,.8-.78,2.33,2.33,0,0,1,1.19-.32,2.18,2.18,0,0,1,1.71.66,2.48,2.48,0,0,1,.58,1.73v3.93h-1v-3.77a1.64,1.64,0,0,0-.42-1.23,1.53,1.53,0,0,0-1.09-.39,1.43,1.43,0,0,0-.88.29,2.09,2.09,0,0,0-.64.74,2.11,2.11,0,0,0-.23,1v3.41h-1Z" transform="translate(-43.67 -28.55)"/><path class="cls-20" d="M712.05,143.61a3,3,0,0,1-1.09-1.16,3.51,3.51,0,0,1-.39-1.66,3.55,3.55,0,0,1,.37-1.63,2.93,2.93,0,0,1,1-1.19,2.72,2.72,0,0,1,1.56-.45,2.93,2.93,0,0,1,1.56.41,2.53,2.53,0,0,1,1,1.11,3.51,3.51,0,0,1,.36,1.62,1.37,1.37,0,0,1,0,.31h-4.84a2.48,2.48,0,0,0,.34,1.17,1.94,1.94,0,0,0,.76.72,2.08,2.08,0,0,0,1,.24,2,2,0,0,0,1.81-1.1l.86.42a2.89,2.89,0,0,1-2.71,1.61A3,3,0,0,1,712.05,143.61Zm3.34-3.48a2,2,0,0,0-.22-.77,1.64,1.64,0,0,0-.61-.65,1.93,1.93,0,0,0-1-.26,1.71,1.71,0,0,0-1.21.46,2.27,2.27,0,0,0-.66,1.22Z" transform="translate(-43.67 -28.55)"/><path class="cls-20" d="M718.41,143.77a2,2,0,0,1-.82-.73,2,2,0,0,1-.28-1,1.78,1.78,0,0,1,.73-1.52,3,3,0,0,1,1.85-.55,4.13,4.13,0,0,1,1,.12,2.78,2.78,0,0,1,.73.28V140a1.38,1.38,0,0,0-.48-1.1,1.78,1.78,0,0,0-1.22-.41,2,2,0,0,0-.94.22,1.72,1.72,0,0,0-.69.62l-.76-.58a2.29,2.29,0,0,1,1-.86,3.1,3.1,0,0,1,1.4-.32,2.75,2.75,0,0,1,2,.66,2.28,2.28,0,0,1,.72,1.78v3.88h-1V143h0a2.22,2.22,0,0,1-.79.76,2.4,2.4,0,0,1-1.19.31A2.71,2.71,0,0,1,718.41,143.77Zm2.25-.91a1.91,1.91,0,0,0,.71-.7,1.84,1.84,0,0,0,.27-1,2.59,2.59,0,0,0-.71-.32,3.24,3.24,0,0,0-.89-.12,2,2,0,0,0-1.27.35,1.11,1.11,0,0,0-.42.9,1,1,0,0,0,.38.82,1.54,1.54,0,0,0,1,.31A1.78,1.78,0,0,0,720.66,142.86Z" transform="translate(-43.67 -28.55)"/><path class="cls-20" d="M723.35,137.72h1.09l1.9,4.92h0l1.92-4.92h1.07l-2.49,6.12h-1Z" transform="translate(-43.67 -28.55)"/><path class="cls-20" d="M732.06,143.45l-2.53-5.73h1.11l1.92,4.55h0l1.85-4.55h1.1l-3.78,8.71h-1Z" transform="translate(-43.67 -28.55)"/><text class="cls-11" transform="translate(647.29 42.69)">S<tspan class="cls-21" x="9.23" y="0">c</tspan><tspan x="18.13" y="0">a</tspan><tspan class="cls-17" x="26.88" y="0">l</tspan><tspan x="30.62" y="0">e</tspan></text><path id="Combined-Shape-5" data-name="Combined-Shape" class="cls-14" d="M636.37,129.41l6.13-6,.07-.07.14.14-.07.07-6.13,6h0l-.14.13-.07-.06-3.1-3.06-.08-.07.15-.14.07.07Z" transform="translate(-43.67 -28.55)"/><text class="cls-10" transform="translate(606.1 194.11)">Templates ensure good <tspan x="0" y="14.4">governance without </tspan><tspan x="0" y="28.8">manual review</tspan></text><path id="Combined-Shape-6" data-name="Combined-Shape" class="cls-14" d="M636.37,221.48l6.13-6,.07-.07.14.14-.07.07-6.13,6h0l-.14.14-.07-.07-3.1-3.06-.08-.07.15-.14.07.07Z" transform="translate(-43.67 -28.55)"/><rect class="cls-7" x="781.33" y="11.28" width="187.32" height="327.46" rx="4"/><g class="cls-22"><rect class="cls-9" x="765.61" width="224.69" height="60.78"/></g><text class="cls-10" transform="translate(814.1 100.89)">Fear of public internet, <tspan x="0" y="14.4">but trust in private </tspan><tspan x="0" y="28.8">network</tspan></text><text class="cls-11" transform="translate(849.06 42.69)">S<tspan class="cls-13" x="9.23" y="0">e</tspan><tspan x="18.53" y="0">cu</tspan><tspan class="cls-23" x="36.82" y="0">r</tspan><tspan x="42.8" y="0">e</tspan></text><path id="Combined-Shape-7" data-name="Combined-Shape" class="cls-14" d="M844.37,129.41l6.13-6,.07-.07.14.14-.07.07-6.13,6h0l-.14.13-.07-.06-3.1-3.06-.08-.07.15-.14.07.07Z" transform="translate(-43.67 -28.55)"/><path class="cls-20" d="M860.49,222.27a4.22,4.22,0,0,1-1.6-1.62,4.5,4.5,0,0,1-.58-2.28,4.56,4.56,0,0,1,.58-2.29,4.26,4.26,0,0,1,1.6-1.61,4.52,4.52,0,0,1,2.27-.59,4.08,4.08,0,0,1,1.76.37,4.13,4.13,0,0,1,1.39,1l-.73.71a3.18,3.18,0,0,0-1.08-.86,3,3,0,0,0-1.34-.28,3.46,3.46,0,0,0-1.71.44,3.15,3.15,0,0,0-1.24,1.24,3.84,3.84,0,0,0,0,3.68,3.28,3.28,0,0,0,1.24,1.24,3.46,3.46,0,0,0,1.71.44,3.34,3.34,0,0,0,2.65-1.29l.75.72a4.24,4.24,0,0,1-1.48,1.12,4.36,4.36,0,0,1-1.92.42A4.52,4.52,0,0,1,860.49,222.27Z" transform="translate(-43.67 -28.55)"/><path class="cls-20" d="M868.57,222.44a3,3,0,0,1-1.09-1.16,3.51,3.51,0,0,1-.39-1.66,3.73,3.73,0,0,1,.37-1.64,2.9,2.9,0,0,1,1-1.18,2.75,2.75,0,0,1,1.56-.45,3,3,0,0,1,1.56.4,2.64,2.64,0,0,1,1,1.11,3.57,3.57,0,0,1,.36,1.62,1.47,1.47,0,0,1,0,.32h-4.84a2.48,2.48,0,0,0,.34,1.17,1.94,1.94,0,0,0,.76.72,2.08,2.08,0,0,0,1,.24,2,2,0,0,0,1.81-1.1l.86.42a3,3,0,0,1-1.07,1.17,3.21,3.21,0,0,1-3.21,0Zm3.34-3.48a2,2,0,0,0-.22-.77,1.64,1.64,0,0,0-.61-.65,1.83,1.83,0,0,0-1-.26,1.72,1.72,0,0,0-1.22.46,2.27,2.27,0,0,0-.66,1.22Z" transform="translate(-43.67 -28.55)"/><path class="cls-20" d="M874.17,216.54h1v.9h0a2.08,2.08,0,0,1,.81-.77,2.34,2.34,0,0,1,1.17-.32,2.19,2.19,0,0,1,1.69.64,2.5,2.5,0,0,1,.58,1.75v3.92h-1V218.9a1.61,1.61,0,0,0-.41-1.24,1.53,1.53,0,0,0-1.11-.38,1.5,1.5,0,0,0-.88.27,1.89,1.89,0,0,0-.61.73,2.2,2.2,0,0,0-.22.94v3.44h-1Z" transform="translate(-43.67 -28.55)"/><path class="cls-20" d="M882.57,222.73a1.63,1.63,0,0,1-.54-.33,1.47,1.47,0,0,1-.36-.53,2.07,2.07,0,0,1-.12-.75v-3.65h-1.06v-.93h1.06v-1.72h1v1.72h1.49v.93h-1.49v3.41a1.21,1.21,0,0,0,.2.76.81.81,0,0,0,.66.27,1.23,1.23,0,0,0,.67-.21v1a1.23,1.23,0,0,1-.37.12,2.05,2.05,0,0,1-.47,0A1.73,1.73,0,0,1,882.57,222.73Z" transform="translate(-43.67 -28.55)"/><path class="cls-20" d="M885.3,216.54h1v1h.05a1.64,1.64,0,0,1,.69-.84,2,2,0,0,1,1.08-.34,1.93,1.93,0,0,1,.72.13v1.1a1.84,1.84,0,0,0-.86-.19,1.42,1.42,0,0,0-.82.25,1.87,1.87,0,0,0-.59.68,1.92,1.92,0,0,0-.22.92v3.42h-1Z" transform="translate(-43.67 -28.55)"/><path class="cls-20" d="M890.55,222.59a1.89,1.89,0,0,1-.81-.72,2,2,0,0,1-.29-1.05,1.78,1.78,0,0,1,.73-1.52,3.05,3.05,0,0,1,1.85-.55,4.22,4.22,0,0,1,1,.12,2.51,2.51,0,0,1,.72.28v-.37a1.37,1.37,0,0,0-.48-1.1,1.76,1.76,0,0,0-1.21-.41,2,2,0,0,0-1,.22,1.75,1.75,0,0,0-.68.61l-.77-.57a2.47,2.47,0,0,1,1-.87,3.23,3.23,0,0,1,1.4-.31,2.78,2.78,0,0,1,2,.66,2.27,2.27,0,0,1,.71,1.78v3.87h-1v-.87h0a2.12,2.12,0,0,1-.79.75,2.28,2.28,0,0,1-1.19.32A2.65,2.65,0,0,1,890.55,222.59Zm2.26-.9a2,2,0,0,0,.71-.71,1.9,1.9,0,0,0,.26-1,2.76,2.76,0,0,0-.71-.31,3.17,3.17,0,0,0-.88-.12,2,2,0,0,0-1.27.35,1.12,1.12,0,0,0-.43.9,1,1,0,0,0,.39.81,1.47,1.47,0,0,0,1,.32A1.84,1.84,0,0,0,892.81,221.69Z" transform="translate(-43.67 -28.55)"/><path class="cls-20" d="M896.17,214.07h1v8.59h-1Z" transform="translate(-43.67 -28.55)"/><path class="cls-20" d="M901.57,215.21a.7.7,0,0,1,0-1,.72.72,0,0,1,.52-.21.69.69,0,0,1,.51.21.67.67,0,0,1,.22.51.73.73,0,0,1-1.25.51Zm0,1.33h1v6.12h-1Z" transform="translate(-43.67 -28.55)"/><path class="cls-20" d="M905.31,222.44a2.88,2.88,0,0,1-1-1.16,3.77,3.77,0,0,1,0-3.34,2.84,2.84,0,0,1,1-1.17,2.71,2.71,0,0,1,1.48-.42,2.51,2.51,0,0,1,1.26.32,2.21,2.21,0,0,1,.84.79h.05l-.05-.86v-2.53h1v8.59h-1v-.89h-.05a2.33,2.33,0,0,1-.84.77,2.51,2.51,0,0,1-1.26.32A2.71,2.71,0,0,1,905.31,222.44Zm2.6-.8a2.1,2.1,0,0,0,.75-.81,2.82,2.82,0,0,0,0-2.45,2.2,2.2,0,0,0-.75-.82,1.87,1.87,0,0,0-1-.28,1.92,1.92,0,0,0-1,.28,2.16,2.16,0,0,0-.75.83,2.78,2.78,0,0,0,0,2.43,2.06,2.06,0,0,0,.75.82,1.84,1.84,0,0,0,1,.29A1.79,1.79,0,0,0,907.91,221.64Z" transform="translate(-43.67 -28.55)"/><path class="cls-20" d="M912.57,222.44a3,3,0,0,1-1.08-1.16,3.51,3.51,0,0,1-.39-1.66,3.72,3.72,0,0,1,.36-1.64,3,3,0,0,1,1-1.18,2.75,2.75,0,0,1,1.56-.45,3,3,0,0,1,1.56.4,2.73,2.73,0,0,1,1,1.11,3.7,3.7,0,0,1,.35,1.62,1,1,0,0,1,0,.32h-4.83a2.37,2.37,0,0,0,.33,1.17,2,2,0,0,0,.77.72,2,2,0,0,0,1,.24,2,2,0,0,0,1.81-1.1l.87.42a3,3,0,0,1-1.08,1.17,2.94,2.94,0,0,1-1.63.44A3,3,0,0,1,912.57,222.44Zm3.34-3.48a2,2,0,0,0-.22-.77,1.61,1.61,0,0,0-.6-.65,1.87,1.87,0,0,0-1-.26,1.72,1.72,0,0,0-1.22.46,2.2,2.2,0,0,0-.65,1.22Z" transform="translate(-43.67 -28.55)"/><path class="cls-20" d="M918.18,216.54h1v.9h.05a2.05,2.05,0,0,1,.8-.77,2.35,2.35,0,0,1,1.18-.32,2.17,2.17,0,0,1,1.68.64,2.5,2.5,0,0,1,.59,1.75v3.92h-1V218.9a1.65,1.65,0,0,0-.41-1.24,1.55,1.55,0,0,0-1.12-.38,1.5,1.5,0,0,0-.88.27,2,2,0,0,0-.61.73,2.19,2.19,0,0,0-.21.94v3.44h-1Z" transform="translate(-43.67 -28.55)"/><path class="cls-20" d="M926.57,222.73a1.49,1.49,0,0,1-.53-.33,1.47,1.47,0,0,1-.36-.53,2.07,2.07,0,0,1-.12-.75v-3.65h-1.07v-.93h1.07v-1.72h1v1.72h1.48v.93h-1.48v3.41a1.22,1.22,0,0,0,.19.76.81.81,0,0,0,.66.27,1.2,1.2,0,0,0,.67-.21v1a1.23,1.23,0,0,1-.37.12,2.05,2.05,0,0,1-.47,0A1.73,1.73,0,0,1,926.57,222.73Z" transform="translate(-43.67 -28.55)"/><path class="cls-20" d="M929.38,215.21a.72.72,0,0,1,0-1,.75.75,0,0,1,1,0,.72.72,0,0,1,0,1,.67.67,0,0,1-.52.22A.7.7,0,0,1,929.38,215.21Zm0,1.33h1v6.12h-1Z" transform="translate(-43.67 -28.55)"/><path class="cls-20" d="M933.67,222.73a1.49,1.49,0,0,1-.53-.33,1.47,1.47,0,0,1-.36-.53,2.07,2.07,0,0,1-.12-.75v-3.65h-1.07v-.93h1.07v-1.72h1v1.72h1.49v.93h-1.49v3.41a1.22,1.22,0,0,0,.19.76.81.81,0,0,0,.66.27,1.2,1.2,0,0,0,.67-.21v1a1.27,1.27,0,0,1-.36.12,2.15,2.15,0,0,1-.48,0A1.8,1.8,0,0,1,933.67,222.73Z" transform="translate(-43.67 -28.55)"/><path class="cls-20" d="M938.28,222.28l-2.54-5.74h1.11l1.92,4.55h0l1.85-4.55h1.1L938,225.26h-1.05Z" transform="translate(-43.67 -28.55)"/><path class="cls-20" d="M942.45,223.66l.64-1a.65.65,0,0,1-.39-.22.71.71,0,0,1-.16-.47.69.69,0,0,1,.22-.53.76.76,0,0,1,1.09,0,.69.69,0,0,1,.22.53,1.09,1.09,0,0,1-.08.39,3.51,3.51,0,0,1-.25.42l-.8,1.2Z" transform="translate(-43.67 -28.55)"/><path class="cls-20" d="M948.27,214.07h1v2.53l0,.84h0a2.07,2.07,0,0,1,.8-.78,2.43,2.43,0,0,1,1.19-.31A2.16,2.16,0,0,1,953,217a2.48,2.48,0,0,1,.58,1.73v3.92h-1V218.9a1.64,1.64,0,0,0-.42-1.23,1.57,1.57,0,0,0-1.1-.39,1.49,1.49,0,0,0-.88.28,2.11,2.11,0,0,0-.87,1.7v3.4h-1Z" transform="translate(-43.67 -28.55)"/><path class="cls-20" d="M956.91,222.28l-2.53-5.74h1.1l1.92,4.55h0l1.84-4.55h1.11l-3.78,8.72h-1.06Z" transform="translate(-43.67 -28.55)"/><path class="cls-20" d="M963.08,222.54a2.22,2.22,0,0,1-.83-.77h0v.89h-1v-8.59h1v2.53l0,.86h0a2.11,2.11,0,0,1,.83-.79,2.54,2.54,0,0,1,1.26-.32,2.77,2.77,0,0,1,1.49.42,2.91,2.91,0,0,1,1,1.17,3.77,3.77,0,0,1,0,3.34,3,3,0,0,1-1,1.16,2.77,2.77,0,0,1-1.49.42A2.54,2.54,0,0,1,963.08,222.54Zm2.13-.9a1.93,1.93,0,0,0,.75-.82,2.69,2.69,0,0,0,0-2.43,2,2,0,0,0-.75-.83,1.86,1.86,0,0,0-1-.28,1.89,1.89,0,0,0-1,.28,2.1,2.1,0,0,0-.74.82,2.82,2.82,0,0,0,0,2.45,2,2,0,0,0,.74.81,1.82,1.82,0,0,0,1,.29A1.78,1.78,0,0,0,965.21,221.64Z" transform="translate(-43.67 -28.55)"/><path class="cls-20" d="M968.45,216.54h1v1h0a1.67,1.67,0,0,1,.7-.84,2,2,0,0,1,1.08-.34,1.93,1.93,0,0,1,.72.13v1.1a1.87,1.87,0,0,0-.86-.19,1.42,1.42,0,0,0-.82.25,1.7,1.7,0,0,0-.59.68,1.93,1.93,0,0,0-.23.92v3.42h-1Z" transform="translate(-43.67 -28.55)"/><path class="cls-20" d="M973,215.21a.7.7,0,0,1,0-1,.69.69,0,0,1,.51-.21.72.72,0,0,1,.52.21.7.7,0,0,1,.22.51.73.73,0,0,1-.74.73A.67.67,0,0,1,973,215.21Zm0,1.33h1v6.12h-1Z" transform="translate(-43.67 -28.55)"/><path class="cls-20" d="M976.78,222.44a2.88,2.88,0,0,1-1-1.16,3.77,3.77,0,0,1,0-3.34,2.84,2.84,0,0,1,1-1.17,2.69,2.69,0,0,1,1.48-.42,2.51,2.51,0,0,1,1.26.32,2.21,2.21,0,0,1,.84.79h0l0-.86v-2.53h1v8.59h-1v-.89h0a2.33,2.33,0,0,1-.84.77,2.51,2.51,0,0,1-1.26.32A2.69,2.69,0,0,1,976.78,222.44Zm2.6-.8a2,2,0,0,0,.74-.81,2.73,2.73,0,0,0,0-2.45,2.1,2.1,0,0,0-.74-.82,1.87,1.87,0,0,0-1-.28,1.89,1.89,0,0,0-1,.28,2.16,2.16,0,0,0-.75.83,2.78,2.78,0,0,0,0,2.43,2.06,2.06,0,0,0,.75.82,1.82,1.82,0,0,0,1,.29A1.79,1.79,0,0,0,979.38,221.64Z" transform="translate(-43.67 -28.55)"/><path class="cls-20" d="M858.53,230.94h1v.9h0a2.05,2.05,0,0,1,.8-.77,2.35,2.35,0,0,1,1.18-.32,2.18,2.18,0,0,1,1.68.64,2.5,2.5,0,0,1,.59,1.75v3.92h-1V233.3a1.65,1.65,0,0,0-.4-1.24,1.6,1.6,0,0,0-1.12-.38,1.5,1.5,0,0,0-.88.27,2,2,0,0,0-.61.73,2.19,2.19,0,0,0-.21.94v3.44h-1Z" transform="translate(-43.67 -28.55)"/><path class="cls-20" d="M866.41,236.84a3,3,0,0,1-1.09-1.16,3.51,3.51,0,0,1-.39-1.66,3.73,3.73,0,0,1,.37-1.64,2.9,2.9,0,0,1,1-1.18,2.75,2.75,0,0,1,1.56-.45,3,3,0,0,1,1.56.4,2.61,2.61,0,0,1,1,1.12,3.5,3.5,0,0,1,.36,1.61,1.47,1.47,0,0,1,0,.32H866a2.48,2.48,0,0,0,.34,1.17,1.94,1.94,0,0,0,.76.72,2.08,2.08,0,0,0,1,.24,2,2,0,0,0,1.81-1.1l.86.42a3,3,0,0,1-1.07,1.17,3.21,3.21,0,0,1-3.21,0Zm3.34-3.48a2,2,0,0,0-.22-.77,1.64,1.64,0,0,0-.61-.65,1.92,1.92,0,0,0-1-.26,1.72,1.72,0,0,0-1.22.46,2.27,2.27,0,0,0-.66,1.22Z" transform="translate(-43.67 -28.55)"/><path class="cls-20" d="M873.68,237.13a1.54,1.54,0,0,1-.54-.33,1.47,1.47,0,0,1-.36-.53,2.11,2.11,0,0,1-.12-.75v-3.65h-1.07v-.93h1.07v-1.72h1v1.72h1.49v.93h-1.49v3.41a1.28,1.28,0,0,0,.19.76.84.84,0,0,0,.66.27,1.23,1.23,0,0,0,.68-.21v1a1.33,1.33,0,0,1-.37.12,2.84,2.84,0,0,1-.47,0A1.73,1.73,0,0,1,873.68,237.13Z" transform="translate(-43.67 -28.55)"/><path class="cls-20" d="M875.73,230.94h1l1.46,4.84h0l1.54-4.84h1.06l1.54,4.83h0l1.45-4.83h1l-2,6.12h-1l-1.59-4.88-1.57,4.88h-1Z" transform="translate(-43.67 -28.55)"/><path class="cls-20" d="M886.93,236.82a3,3,0,0,1-1.12-1.17,3.41,3.41,0,0,1-.4-1.65,3.37,3.37,0,0,1,.4-1.64,2.93,2.93,0,0,1,1.12-1.17,3.2,3.2,0,0,1,3.24,0,2.93,2.93,0,0,1,1.12,1.17,3.37,3.37,0,0,1,.4,1.64,3.41,3.41,0,0,1-.4,1.65,3,3,0,0,1-1.12,1.17,3.2,3.2,0,0,1-3.24,0Zm2.67-.77a2.17,2.17,0,0,0,.78-.81,2.77,2.77,0,0,0,0-2.47,2.17,2.17,0,0,0-.78-.81,2,2,0,0,0-1.05-.28,2.08,2.08,0,0,0-1.06.28,2.1,2.1,0,0,0-.78.81,2.69,2.69,0,0,0,0,2.47,2.1,2.1,0,0,0,.78.81,2.08,2.08,0,0,0,1.06.28A2,2,0,0,0,889.6,236.05Z" transform="translate(-43.67 -28.55)"/><path class="cls-20" d="M892.88,230.94h1v1h0a1.62,1.62,0,0,1,.7-.84,1.89,1.89,0,0,1,1.08-.34,1.93,1.93,0,0,1,.72.13V232a1.92,1.92,0,0,0-.87-.2,1.42,1.42,0,0,0-.81.26,1.8,1.8,0,0,0-.6.68,2,2,0,0,0-.22.92v3.42h-1Z" transform="translate(-43.67 -28.55)"/><path class="cls-20" d="M897.38,228.47h1v5.4l2.88-2.93h1.3V231l-2.4,2.43,2.46,3.6v0h-1.21l-2-2.94-1.06,1.06v1.88h-1Z" transform="translate(-43.67 -28.55)"/><path id="Combined-Shape-8" data-name="Combined-Shape" class="cls-14" d="M844.37,221.48l6.13-6,.07-.07.14.14-.07.07-6.13,6h0l-.14.14-.07-.07-3.1-3.06-.08-.07.15-.14.07.07Z" transform="translate(-43.67 -28.55)"/><text class="cls-10" transform="translate(189.1 281.93)">Peer learning and sharing, <tspan x="0" y="14.4">third-party staff</tspan><tspan x="0" y="28.8">augmentation only</tspan></text><path id="Combined-Shape-9" data-name="Combined-Shape" class="cls-14" d="M219.37,309.74l6.13-6,.07-.07.14.14-.07.07-6.13,6h0l-.14.14-.07-.07-3.1-3.06-.08-.07.15-.14.07.07Z" transform="translate(-43.67 -28.55)"/><text class="cls-10" transform="translate(397.1 281.93)">Cross-functional feature <tspan x="0" y="14.4">teams, greater autonomy</tspan></text><path id="Combined-Shape-10" data-name="Combined-Shape" class="cls-14" d="M427.37,309.74l6.13-6,.07-.07.14.14-.07.07-6.13,6h0l-.14.14-.07-.07-3.1-3.06-.08-.07.15-.14.07.07Z" transform="translate(-43.67 -28.55)"/><text class="cls-10" transform="translate(606.1 281.93)">Cross-functional feature <tspan x="0" y="14.4">teams, greater autonomy</tspan></text><path id="Combined-Shape-11" data-name="Combined-Shape" class="cls-14" d="M636.37,309.74l6.13-6,.07-.07.14.14-.07.07-6.13,6h0l-.14.14-.07-.07-3.1-3.06-.08-.07.15-.14.07.07Z" transform="translate(-43.67 -28.55)"/><text class="cls-10" transform="translate(814.1 281.93)">Trust only the right <tspan x="0" y="14.4">people, devices, and </tspan><tspan x="0" y="28.8">services</tspan></text><path id="Combined-Shape-12" data-name="Combined-Shape" class="cls-14" d="M844.37,309.74l6.13-6,.07-.07.14.14-.07.07-6.13,6h0l-.14.14-.07-.07-3.1-3.06-.08-.07.15-.14.07.07Z" transform="translate(-43.67 -28.55)"/><polygon class="cls-24" points="126.36 344.29 120.58 337.82 132.03 337.82 126.36 344.29"/></svg>
