<svg xmlns="http://www.w3.org/2000/svg" viewBox="0 0 736 620" width="736" height="620"><defs><clipPath id="a"><path d="M73.5 368.181h118v96.8h-118z"/></clipPath><clipPath id="b"><path d="M74 507.106h118v62.9H74z"/></clipPath><clipPath id="c"><path d="M221.5 368.181h118v96.8h-118z"/></clipPath><clipPath id="d"><path d="M369.5 368.181h118v96.8h-118z"/></clipPath><clipPath id="e"><path d="M517.5 368.181h118v96.8h-118z"/></clipPath><clipPath id="f"><path d="M293.91 189.181h118v96.8h-118z"/></clipPath><clipPath id="g"><path d="M517.323 507.056h118v62.9h-118z"/></clipPath><clipPath id="h"><path d="M221.5 507.106h118v62.9h-118z"/></clipPath><clipPath id="i"><path d="M369.5 507.106h118v62.9h-118z"/></clipPath><clipPath id="j"><path d="M293.59 49.994h118v96.987h-118z"/></clipPath><marker orient="auto" overflow="visible" id="k" stroke-miterlimit="10" viewBox="-1 -5 10 10" markerWidth="10" markerHeight="10" color="#616161"><path d="M8 0H0m4-4l4 4-4 4" fill="none" stroke="currentColor"/></marker></defs><g fill="none"><title>Policy Inheritance 2</title><path fill="#fff" d="M0 0h736v620H0z"/><title>Layer 1</title><path fill="#fff" d="M73.5 368.181h118v96.8h-118z"/><path stroke="#dfdfdf" stroke-linecap="round" stroke-linejoin="round" stroke-width="2" clip-path="url(#a)" d="M73.5 368.181h118v96.8h-118z"/><path fill="#fff" d="M74 507.106h118v62.9H74z"/><path stroke="#dfdfdf" stroke-linecap="round" stroke-linejoin="round" stroke-width="2" clip-path="url(#b)" d="M74 507.106h118v62.9H74z"/><path fill="#fff" d="M221.5 368.181h118v96.8h-118z"/><path stroke="#dfdfdf" stroke-linecap="round" stroke-linejoin="round" stroke-width="2" clip-path="url(#c)" d="M221.5 368.181h118v96.8h-118z"/><path fill="#fff" d="M369.5 368.181h118v96.8h-118z"/><path stroke="#dfdfdf" stroke-linecap="round" stroke-linejoin="round" stroke-width="2" clip-path="url(#d)" d="M369.5 368.181h118v96.8h-118z"/><path fill="#fff" d="M517.5 368.181h118v96.8h-118z"/><path stroke="#dfdfdf" stroke-linecap="round" stroke-linejoin="round" stroke-width="2" clip-path="url(#e)" d="M517.5 368.181h118v96.8h-118z"/><path fill="#fff" d="M293.91 189.181h118v96.8h-118z"/><path stroke="#dfdfdf" stroke-linecap="round" stroke-linejoin="round" stroke-width="2" clip-path="url(#f)" d="M293.91 189.181h118v96.8h-118z"/><path fill="#fff" d="M517.323 507.056h118v62.9h-118z"/><path stroke="#dfdfdf" stroke-linecap="round" stroke-linejoin="round" stroke-width="2" clip-path="url(#g)" d="M517.323 507.056h118v62.9h-118z"/><circle cx="566.1" cy="538.506" r="7.4" fill="#34a853"/><path fill="#fff" d="M221.5 507.106h118v62.9h-118z"/><path stroke="#dfdfdf" stroke-linecap="round" stroke-linejoin="round" stroke-width="2" clip-path="url(#h)" d="M221.5 507.106h118v62.9h-118z"/><path fill="#fff" d="M369.5 507.106h118v62.9h-118z"/><path stroke="#dfdfdf" stroke-linecap="round" stroke-linejoin="round" stroke-width="2" clip-path="url(#i)" d="M369.5 507.106h118v62.9h-118z"/><path fill="#fff" d="M293.59 49.994h118v96.987h-118z"/><path stroke="#dfdfdf" stroke-linecap="round" stroke-linejoin="round" stroke-width="2" clip-path="url(#j)" d="M293.59 49.994h118v96.987h-118z"/><title>template - fill</title><text transform="translate(334.59 69.994)" fill="#212121"><tspan font-family="Roboto" font-size="12" font-weight="400" x="0" y="11">Constraint</tspan></text><title>Assignment</title><path d="M325.59 69.794h-4.18c-.42-1.044-1.52-1.8-2.82-1.8-1.3 0-2.4.756-2.82 1.8h-4.18c-1.1 0-2 .81-2 1.8v12.6c0 .99.9 1.8 2 1.8h14c1.1 0 2-.81 2-1.8v-12.6c0-.99-.9-1.8-2-1.8zm-7 0c.55 0 1 .405 1 .9s-.45.9-1 .9-1-.405-1-.9.45-.9 1-.9zm2 12.6h-7v-1.8h7v1.8zm3-3.6h-10v-1.8h10v1.8zm0-3.6h-10v-1.8h10v1.8z" fill="#616161"/><text transform="translate(334.59 202.181)" fill="#212121"><tspan font-family="Roboto" font-size="12" font-weight="400" x="0" y="11">Organization</tspan> <tspan font-family="Roboto" font-size="12" font-weight="400" x="0" y="25">Node</tspan></text><title>Domain</title><path d="M317.627 210.221v-3.84h-9.6v17.28h19.2v-13.44h-9.6zm-5.76 11.52h-1.92v-1.92h1.92v1.92zm0-3.84h-1.92v-1.92h1.92v1.92zm0-3.84h-1.92v-1.92h1.92v1.92zm0-3.84h-1.92v-1.92h1.92v1.92zm3.84 11.52h-1.92v-1.92h1.92v1.92zm0-3.84h-1.92v-1.92h1.92v1.92zm0-3.84h-1.92v-1.92h1.92v1.92zm0-3.84h-1.92v-1.92h1.92v1.92zm9.6 11.52h-7.68v-1.92h1.92v-1.92h-1.92v-1.92h1.92v-1.92h-1.92v-1.92h7.68v9.6zm-1.92-7.68h-1.92v1.92h1.92v-1.92zm0 3.84h-1.92v1.92h1.92v-1.92z" fill="#616161"/><title>path dash big</title><path d="M411.59 98.487h259.085v318.094H645.4" marker-end="url(#k)" stroke="#616161" stroke-linecap="round" stroke-linejoin="round" stroke-dasharray="4.0,4.0"/><circle cx="281.22" cy="434.391" r="7.4" fill="#34a853"/><title>Remove</title><path d="M268.82 435.148h-10.6v-1.514h10.6v1.514z" fill="#616161"/><title>Add</title><path d="M109.999 435.151h4.543v4.544h1.515v-4.543h4.543v-1.515h-4.543v-4.543h-1.515v4.543H110v1.514z" fill="#616161"/><title>Add</title><path d="M406.499 434.428h4.543v4.543h1.515v-4.543h4.543v-1.514h-4.543v-4.544h-1.515v4.543H406.5v1.515z" fill="#616161"/><title>Add</title><path d="M553.7 434.428h4.543v4.543h1.515v-4.543h4.543v-1.514h-4.543v-4.544h-1.515v4.543H553.7v1.515zm32.523-.066c0 .922-.2 1.793-.586 2.598-.402.804-.939 1.441-1.643 1.894a4.23 4.23 0 0 1-2.346.687c-.905 0-1.743-.285-2.497-.871-.755-.587-1.375-1.425-1.878-2.531-.502 1.123-1.14 1.977-1.877 2.547a3.931 3.931 0 0 1-2.464.855 4.255 4.255 0 0 1-2.346-.67c-.687-.453-1.24-1.09-1.643-1.894a5.785 5.785 0 0 1-.603-2.632v-.234c0-.922.201-1.794.587-2.598.385-.805.938-1.442 1.642-1.894a4.255 4.255 0 0 1 2.347-.67c.905 0 1.743.284 2.48.854.738.57 1.375 1.425 1.877 2.548.503-1.106 1.123-1.961 1.878-2.548a3.971 3.971 0 0 1 2.514-.855c1.29 0 2.38.503 3.251 1.509.872 1.005 1.307 2.262 1.307 3.788zm-16.14 0c0 1.106.268 2.011.788 2.698.52.688 1.207 1.04 2.061 1.04.721 0 1.358-.302 1.945-.889.586-.586 1.039-1.39 1.357-2.43l.1-.369v-.402a6.453 6.453 0 0 0-.77-1.844c-.369-.603-.771-1.056-1.224-1.357a2.568 2.568 0 0 0-1.441-.453c-.838 0-1.525.352-2.045 1.04-.52.687-.788 1.625-.788 2.782v.184zm14.397-.235c0-1.09-.268-1.994-.787-2.698-.52-.704-1.207-1.056-2.045-1.056-.72 0-1.375.302-1.978.888-.587.587-1.056 1.425-1.391 2.48l-.05.303v.402c.134.603.385 1.223.754 1.843.369.62.77 1.073 1.224 1.375a2.56 2.56 0 0 0 1.44.452c.856 0 1.543-.352 2.062-1.039.52-.704.771-1.626.771-2.782v-.168z" fill="#616161"/><title>Add</title><path d="M329.328 115.551h4.544v4.544h1.514v-4.544h4.543v-1.514h-4.543v-4.543h-1.514v4.543h-4.544v1.514zm32.524-.635c0 .922-.201 1.793-.587 2.598-.402.804-.938 1.441-1.642 1.894a4.23 4.23 0 0 1-2.347.687c-.905 0-1.743-.285-2.497-.872-.754-.586-1.375-1.424-1.877-2.53-.503 1.122-1.14 1.977-1.878 2.547-.737.57-1.558.855-2.463.855a4.255 4.255 0 0 1-2.347-.67c-.687-.453-1.24-1.09-1.642-1.895a5.784 5.784 0 0 1-.604-2.631v-.235c0-.921.201-1.793.587-2.598.385-.804.938-1.441 1.642-1.894a4.255 4.255 0 0 1 2.347-.67c.905 0 1.743.285 2.48.855.738.57 1.375 1.425 1.878 2.547.502-1.106 1.123-1.96 1.877-2.547a3.971 3.971 0 0 1 2.514-.855c1.29 0 2.38.503 3.251 1.509.872 1.005 1.308 2.262 1.308 3.787zm-16.14 0c0 1.106.267 2.011.787 2.698.52.687 1.207 1.04 2.062 1.04.72 0 1.357-.302 1.944-.889.586-.587 1.039-1.391 1.357-2.43l.101-.369v-.402a6.45 6.45 0 0 0-.771-1.844c-.369-.603-.771-1.056-1.224-1.358a2.568 2.568 0 0 0-1.44-.452c-.839 0-1.526.352-2.046 1.04-.52.686-.787 1.625-.787 2.781v.185zm14.397-.235c0-1.09-.268-1.994-.788-2.698s-1.207-1.056-2.045-1.056c-.72 0-1.374.301-1.978.888-.586.587-1.056 1.425-1.39 2.48l-.051.302V115c.134.603.385 1.223.754 1.843.369.62.771 1.073 1.224 1.375a2.57 2.57 0 0 0 1.441.452c.855 0 1.542-.352 2.062-1.039.52-.704.77-1.626.77-2.782v-.168z" fill="#616161"/><circle cx="363.5" cy="255.423" r="7.4" fill="#34a853"/><title>Add</title><path d="M319.232 256.18h4.543v4.544h1.515v-4.544h4.543v-1.514h-4.543v-4.543h-1.515v4.543h-4.543v1.514zm115.023 84.926a624.992 624.992 0 0 0-8.28 3.628c-.608.274-1.054.479-1.363.624-.19.09-.292.14-.334.162a.5.5 0 1 0 .463.886c.132-.069.614-.296 1.645-.76 1.73-.78 4.417-1.96 8.265-3.621a.5.5 0 0 0-.396-.918zm148.83-.065a624.377 624.377 0 0 0-8.279 3.627c-.608.274-1.054.48-1.363.625-.19.09-.292.14-.335.162a.5.5 0 0 0 .464.886 49.66 49.66 0 0 1 1.645-.761c1.73-.78 4.417-1.96 8.265-3.621a.5.5 0 0 0-.397-.918z" fill="#616161"/><path d="M577.72 320.752l-.035 11.387-.034 11.388a.5.5 0 1 0 1 .003l.034-11.388.034-11.387a.5.5 0 0 0-1-.003zm-149.378.292v7l.106 7.723.105 7.716a.5.5 0 1 0 1-.014l-.106-7.716-.105-7.716v-6.993a.5.5 0 1 0-1 0zm-292.842.186H134a.5.5 0 0 0-.5.5v36.551a.5.5 0 0 0 1 0V321.73l-.5.5h1.5a.5.5 0 0 0 0-1zm-1 45.051v-8h-1v8zm3.146-4.353l-4 4h.708l-4-4-.708.707 4 4 .354.353.354-.353 4-4zm214.953-75.942c.13 13.29.21 22.547.25 28.435.027 4.044.032 6.045.024 6.66 0 .01-.002.076.01.022a.5.5 0 0 0 .973.235c.015-.061.015-.065.017-.244.008-.624.003-2.629-.024-6.68-.04-5.89-.12-15.148-.25-28.438a.5.5 0 0 0-1 .01z" fill="#616161"/><path d="M135.501 322.23l442.65-1.035a.5.5 0 0 0-.001-1l-442.651 1.034a.5.5 0 1 0 .002 1z" fill="#616161"/><path d="M278.38 321.394v36.887a.5.5 0 0 0 1 0v-36.887a.5.5 0 1 0-1 0zm1 44.887v-8h-1v8zm3.146-4.353l-4 4h.707l-4-4-.707.707 4 4 .353.353.354-.353 4-4zM132.186 464.984l.064 12.587.1 19.638a.5.5 0 1 0 1-.005l-.1-19.638-.064-12.587a.5.5 0 0 0-1 .005zm1.205 40.22l-.041-8-1 .005.04 8zm3.124-4.37l-3.98 4.02.708-.003-4.02-3.98-.704.711 4.02 3.98.355.351.352-.355 3.98-4.02zM280 464.981v32.225a.5.5 0 1 0 1 0v-32.225a.5.5 0 1 0-1 0zm1 40.225v-8h-1v8zm3.146-4.353l-4 4h.708l-4-4-.708.707 4 4 .354.353.354-.353 4-4zM428 464.981v32.225a.5.5 0 1 0 1 0v-32.225a.5.5 0 1 0-1 0zm1 40.225v-8h-1v8zm3.146-4.353l-4 4h.708l-4-4-.708.707 4 4 .354.353.354-.353 4-4zM576 464.981v32.2a.5.5 0 1 0 1 0v-32.2a.5.5 0 1 0-1 0zm1 40.2v-8h-1v8zm3.146-4.353l-4 4h.708l-4-4-.708.707 4 4 .354.353.354-.353 4-4zM357.274 168.29a624.958 624.958 0 0 0-8.28 3.626 91.19 91.19 0 0 0-1.363.625c-.19.09-.292.14-.334.162a.5.5 0 0 0 .463.886c.132-.069.614-.296 1.645-.76 1.73-.78 4.417-1.96 8.265-3.622a.5.5 0 0 0-.396-.918z" fill="#616161"/><path d="M351.508 147.981l-.004 11.398-.004 11.397a.5.5 0 0 0 1 0l.004-11.397.004-11.398a.5.5 0 0 0-1 0z" fill="#616161"/><path d="M586.511 546.394l-8.5-8.5 8.5-8.5 8.5 8.5z" fill="#1a73e8"/><path fill="#ea4335" d="M538.523 531.506h14v14h-14z"/><path d="M611.526 530.894h-8.006l-3.997 7 3.997 7h8.006l3.997-7zM432.503 530.894h-8.006l-3.997 7 3.997 7h8.006l3.997-7z" fill="#fbbc04"/><path fill="#ea4335" d="M273.45 531.906h14v14h-14z"/><circle cx="132.333" cy="539.119" r="7.4" fill="#34a853"/><path d="M152.744 547.006l-8.5-8.5 8.5-8.5 8.5 8.5z" fill="#1a73e8"/><path fill="#ea4335" d="M104.756 532.119h14v14h-14z"/><path d="M133.02 443.265l-8.5-8.5 8.5-8.5 8.5 8.5z" fill="#1a73e8"/><path d="M433.023 427.59h-8.006l-3.997 7 3.997 7h8.006l3.997-7z" fill="#fbbc04"/><path fill="#ea4335" d="M337.309 248.543h14v14h-14z"/><title>Folder</title><path d="M97.422 388.526h-5.4c-.99 0-1.791.81-1.791 1.8l-.01 10.8c0 .99.81 1.8 1.8 1.8h14.4c.99 0 1.8-.81 1.8-1.8v-9c0-.99-.81-1.8-1.8-1.8h-7.2l-1.8-1.8z" fill="#616161"/><text transform="translate(115 389.627)" fill="#212121"><tspan font-family="Roboto" font-size="12" font-weight="400" x="0" y="11">Resource 1</tspan></text><title>Folder</title><path d="M244.922 388.526h-5.4c-.99 0-1.791.81-1.791 1.8l-.01 10.8c0 .99.81 1.8 1.8 1.8h14.4c.99 0 1.8-.81 1.8-1.8v-9c0-.99-.81-1.8-1.8-1.8h-7.2l-1.8-1.8z" fill="#616161"/><text transform="translate(262.5 389.627)" fill="#212121"><tspan font-family="Roboto" font-size="12" font-weight="400" x="0" y="11">Resource 2</tspan></text><g><title>Folder</title><path d="M392.922 388.526h-5.4c-.99 0-1.791.81-1.791 1.8l-.01 10.8c0 .99.81 1.8 1.8 1.8h14.4c.99 0 1.8-.81 1.8-1.8v-9c0-.99-.81-1.8-1.8-1.8h-7.2l-1.8-1.8z" fill="#616161"/><text transform="translate(410.5 389.627)" fill="#212121"><tspan font-family="Roboto" font-size="12" font-weight="400" x="0" y="11">Resource 3</tspan></text></g><g><title>Folder</title><path d="M540.922 388.526h-5.4c-.99 0-1.791.81-1.791 1.8l-.01 10.8c0 .99.81 1.8 1.8 1.8h14.4c.99 0 1.8-.81 1.8-1.8v-9c0-.99-.81-1.8-1.8-1.8h-7.2l-1.8-1.8z" fill="#616161"/><text transform="translate(558.5 389.627)" fill="#212121"><tspan font-family="Roboto" font-size="12" font-weight="400" x="0" y="11">Resource 4</tspan></text></g></g></svg>